<svg xmlns="http://www.w3.org/2000/svg" xmlns:xlink="http://www.w3.org/1999/xlink" viewBox="0 0 500 500" style="enable-background:new 0 0 500 500" xml:space="preserve"><path style="fill:#fff" d="M0 0h500v500H0z"/><path style="fill:none;stroke:#fff;stroke-linecap:round;stroke-linejoin:round;stroke-miterlimit:10" d="M262.105 302.86a23.974 23.974 0 0 1 9.056-11.498c-5.391-.894-11.071-1.222-16.19.692-5.363 2.006-9.611 6.323-12.599 11.208-2.988 4.885-4.854 10.358-6.696 15.78a11.38 11.38 0 0 1-2.497-7.267c-.02 1.18-1.827 3.483-2.317 4.644a42.104 42.104 0 0 0-1.721 4.897 42.609 42.609 0 0 0-1.603 10.476c-.004.152.001.307-.001.459-1.187-1.04-2.099-2.392-2.563-3.9a20.21 20.21 0 0 0 1.536 13.291 21.765 21.765 0 0 1-7.375-.791c1.172 3.253 3.129 6.212 5.626 8.6 1.08 1.033 2.663 2.659 4.119 3.121.569.181.991.157 1.352.006l.061.244-.028-.253c.613-.271 1.047-.92 1.722-1.592 4.682-4.659 10.902-7.741 17.464-8.552 7.382-.912 15.083 1.065 21.113 5.421-.248-2.377-.495-4.793-.067-7.144 1.151-6.324 6.762-10.713 11.967-14.484 2.045-1.481 4.42-3.041 6.895-2.539a42.146 42.146 0 0 0-15.095-6.928c4.123-6.033 10.724-10.315 17.913-11.621-4.472-3.227-9.427-6.026-14.875-6.876-5.449-.851-11.478.534-15.197 4.606z"/><path style="fill:#191515" d="m286.29 422.841-4.98 2.31s-4.32 9.25-12.58 3.7c0 0 6.69-.89 7.48-5.54l.01-4.58s-7.68-1.4-10.25 1.03c-2.57 2.44-6.63 6.26-6.63 6.26s.34 3.46-3.05 8.09c0 0 1.6 7.36.15 10.14 0 0 .35 2.39 5 1.66 0 0-3.22 5.6-9.73 2.87-6.51-2.73-4.99-6.25-4.99-6.25l1.53-9.62 1.69-7.13s2.32-6.18-1.76-6.34l-5.05 3.06-1.42 3.7s2 1.98-.25 5.88c0 0 2.17 2.95 4.76 2.97 0 0-4.11 3.5-10.47-.26-6.35-3.75-2.6-5.06-2.6-5.06l2.65-12.81 4.55-5.96 6.79-5.29-.78-.48-4 .11-7.44.35s-1.9 1.72-2.77 3.6c-.87 1.88-2.02.61-3 1.84-.98 1.24.88 6.69.88 6.69-4.84-1.16-4.58-9.64-4.58-9.64l6.67-11.44 10.92-3.27.08.07c.57-.38 1.22-.63 1.94-.69 4.39-.35 11.4-1.3 11.4-1.3s3.99.45 3.76-4.36c-.23-4.81.86-11.97-1.69-13.66-1.47-.97-5.25-1.12-8.73-1.35-1.32-.09-2.6-.19-3.69-.35-.67-.14-1.4-.31-2.19-.53-.01 0-.02 0-.03-.01-5.94-1.66-14.65-6.01-17.33-17.3l-.24-3.03c-.58-.51-1.11-1.04-1.56-1.47-2.5-2.39-4.45-5.35-5.62-8.6 2.38.68 4.89.95 7.37.79-2-4.08-2.55-8.86-1.54-13.29.47 1.51 1.38 2.86 2.57 3.9 0-.15-.01-.31 0-.46.09-3.54.64-7.07 1.6-10.48.47-1.66 1.05-3.3 1.72-4.89.49-1.16 2.3-3.47 2.32-4.65-.04 2.62.86 5.24 2.5 7.27 1.84-5.42 3.71-10.89 6.69-15.78 2.99-4.88 7.24-9.2 12.6-11.21 5.12-1.91 10.8-1.58 16.19-.69-4.12 2.76-7.33 6.85-9.05 11.5 3.71-4.07 9.74-5.46 15.19-4.61 5.45.85 10.41 3.65 14.88 6.88-7.19 1.3-13.79 5.59-17.92 11.62a42.209 42.209 0 0 1 15.1 6.93c-2.48-.5-4.85 1.06-6.9 2.54-5.2 3.77-10.81 8.16-11.96 14.48-.17.94-.23 1.88-.23 2.83 4.3 7.7 6.08 21.58 6.08 21.58l.27 28.97 1.62 6.3 7.33 7.11s8.28 6.009.72 15.35z"/><path style="fill:#fff" d="M256.462 433.846a6.776 6.776 0 0 1-4.588.119l-.008-.003a.504.504 0 1 1 .418-.91c1.186.717 2.692 1.03 4.178.794zM259.448 425.846c-2.373-.041-4.761-1.517-5.868-3.842l-.002-.005a.501.501 0 1 1 .932-.362c.637 2.077 2.592 3.837 4.938 4.209zM276.399 421.928c-.095-1.091-.274-2.154-.297-3.271 0-.557.158-1.151.487-1.627.318-.482.734-.872 1.139-1.241.814-.74 1.664-1.422 2.351-2.212.682-.782 1.209-1.702 1.313-2.651a.5.5 0 1 1 .988.154c-.238 1.223-.954 2.219-1.755 3.012-.811.798-1.724 1.417-2.575 2.08-.856.641-1.653 1.403-1.698 2.501-.06 1.062.036 2.17.047 3.255zM260.428 378.347c-.15-1.273-.304-2.556-.681-3.77-.372-1.206-.993-2.353-1.917-3.162-.924-.811-2.133-1.189-3.354-1.546-1.216-.362-2.541-.713-3.668-1.599a.5.5 0 1 1 .645-.763c.859.782 2.054 1.213 3.257 1.65 1.197.437 2.493.927 3.461 1.893.956.958 1.514 2.203 1.816 3.461.305 1.266.373 2.556.441 3.836zM241.597 426.523c-.875.25-1.858-.02-2.648-.522-.8-.507-1.433-1.219-2.03-1.882a.502.502 0 1 1 .802-.597c.463.762.909 1.499 1.531 2.082.612.569 1.442.998 2.345.919zM247.323 420.023c-1.693-.562-3.098-2.167-3.376-4.133l-.001-.01a.503.503 0 1 1 1-.042c-.089 1.582.817 3.318 2.377 4.185zM234.868 405.854c-.942-1.285-1.435-2.967-1.288-4.677l.001-.008a.503.503 0 1 1 .982.192c-.432 1.405-.349 3.039.305 4.493zM245.651 405.532c-1.004-.584-1.604-1.733-1.809-2.895-.21-1.178-.076-2.376.047-3.508a.5.5 0 1 1 .984.18c-.286 1.1-.566 2.176-.533 3.274.033 1.076.409 2.224 1.311 2.949zM245.837 371.701c-3.791-.568-7.478-1.974-10.645-4.182-3.204-2.189-5.544-5.488-7.002-9.058-1.48-3.589-2.286-7.378-2.818-11.219-.102-.974-.108-1.992.117-2.988.225-.992.643-1.908 1.104-2.769a37.378 37.378 0 0 1 3.167-4.887.501.501 0 0 1 .795.607l-.007.009a36.47 36.47 0 0 0-3.188 4.692c-.461.817-.862 1.656-1.08 2.535-.218.874-.239 1.801-.161 2.733.437 3.754 1.159 7.558 2.535 11.099 1.359 3.539 3.569 6.81 6.685 9.043 3.082 2.251 6.721 3.736 10.498 4.385zM271.662 346.577a14.935 14.935 0 0 0-2.387-4.518 11.46 11.46 0 0 0-1.769-1.834c-.644-.558-1.386-.978-2.139-1.355a.153.153 0 0 1-.084-.119l-.829-7.086.056.135a26.267 26.267 0 0 0-3.072-2.947c-1.1-.9-2.269-1.713-3.503-2.397-1.234-.682-2.54-1.226-3.891-1.558-1.352-.325-2.747-.416-4.102-.219a.501.501 0 1 1-.134-.991c1.502-.175 3.019-.028 4.453.361 1.434.396 2.786 1.008 4.047 1.753a24.425 24.425 0 0 1 3.536 2.57 26.892 26.892 0 0 1 3.059 3.108.244.244 0 0 1 .056.135l.619 7.108-.084-.119c.768.411 1.516.866 2.157 1.454a11.668 11.668 0 0 1 1.743 1.914 14.977 14.977 0 0 1 2.268 4.605zM250.245 424.485l1.041-4.828c.376-1.599.592-3.244 1.278-4.809.701-1.562 1.942-2.83 3.321-3.791 1.384-.973 2.898-1.703 4.39-2.405a.5.5 0 0 1 .425.905l-.024.01c-1.517.621-3.016 1.256-4.375 2.112-1.355.848-2.557 1.961-3.287 3.383-.72 1.428-1.032 3.074-1.486 4.652l-1.283 4.771zM241.559 410.087l3.195-2.733c1.078-.901 2.098-1.844 3.238-2.707.575-.422 1.199-.806 1.894-1.066.699-.266 1.435-.363 2.133-.443l4.179-.47a.5.5 0 1 1 .082.996l-4.198.221c-.694.037-1.366.089-1.994.287-.633.194-1.237.514-1.813.886-1.144.762-2.242 1.659-3.365 2.49l-3.351 2.539zM254.574 395.18c.816-.603 1.704-1.114 2.403-1.838a9.888 9.888 0 0 0 1.781-2.389c.948-1.743 1.369-3.744 1.198-5.663a.5.5 0 1 1 .998-.05 10.84 10.84 0 0 1-1.767 5.969 10.265 10.265 0 0 1-2.043 2.318c-.776.681-1.709 1.119-2.57 1.653zM280.486 402.677a30.729 30.729 0 0 0-5.39-3.763 30.96 30.96 0 0 0-2.951-1.416c-1.001-.426-2.113-.861-2.979-1.783a.502.502 0 1 1 .756-.655c.599.759 1.561 1.26 2.54 1.757a31.859 31.859 0 0 1 2.891 1.667 31.06 31.06 0 0 1 5.133 4.193zM249.834 447.919a7.507 7.507 0 0 0 3.786-1.37c.549-.373.992-.906 1.476-1.364.47-.491.91-1 1.214-1.538a.501.501 0 0 1 .873.493c-.01.018-.024.038-.035.054-.457.615-.998 1.092-1.536 1.536-.572.425-1.084.909-1.726 1.243a7.774 7.774 0 0 1-4.052.946zM233.286 430.259c1.003 1.151 2.367 1.99 3.817 2.221a4.74 4.74 0 0 0 2.136-.152c.693-.207 1.357-.536 2.041-.877a.501.501 0 1 1 .396.919c-.719.264-1.467.543-2.265.689a5.373 5.373 0 0 1-2.414-.089c-1.552-.429-2.837-1.459-3.711-2.711zM226.077 408.098c.457.549.87 1.189 1.416 1.548.545.353 1.213.427 1.922.505a.504.504 0 1 1-.223.975c-.674-.24-1.461-.509-2.024-1.099-.544-.595-.765-1.286-1.091-1.929zM276.396 423.423c.847-.358 1.81-.57 2.792-.377.967.198 1.941.834 2.348 1.918l.008.02a.504.504 0 1 1-.971.251c-.106-.714-.735-1.4-1.524-1.71-.803-.32-1.755-.306-2.653-.102z"/><g><path style="fill:none;stroke:#fff;stroke-linecap:round;stroke-linejoin:round;stroke-miterlimit:10" d="M232.589 211.333a23.976 23.976 0 0 1-6.355-13.184c-3.17 4.451-5.959 9.41-6.487 14.849-.553 5.7 1.461 11.411 4.538 16.241 3.077 4.829 7.175 8.909 11.237 12.944-2.548.581-5.297.24-7.626-.947 1.051.536 2.327 3.17 3.155 4.121a42.619 42.619 0 0 0 12.352 9.736c.135.07.277.133.412.203-1.455.61-3.071.836-4.63.59a20.209 20.209 0 0 0 12.616 4.456 21.768 21.768 0 0 1-3.949 6.279c3.437.375 6.955-.083 10.197-1.278 1.402-.517 3.558-1.226 4.613-2.33.413-.432.576-.821.599-1.212.081.016.164.036.246.052l-.24-.086c.025-.669-.367-1.345-.674-2.246-2.131-6.252-2.169-13.194-.016-19.446 2.422-7.033 7.579-13.084 14.14-16.589-2.245-.821-4.523-1.66-6.448-3.077-5.176-3.811-6.656-10.779-7.758-17.111-.433-2.488-.792-5.307.746-7.31a42.143 42.143 0 0 0-12.852 10.521c-3.61-6.353-4.559-14.164-2.576-21.197-4.862 2.601-9.553 5.824-12.709 10.346s-4.557 10.546-2.531 15.675z"/><path style="fill:#191515" d="M262.58 240.07a29.884 29.884 0 0 0-1.54 11.37c3.38 4.97 6.31 10.26 6.31 13.72 0 8.2-7.47 11.27-7.47 11.27l-27.65 8.64-5.56 3.36-4.69 9.07s-3.36 9.66-14.49 5.13l-3.65-4.1s-10.1-1.46-7.17-10.98c0 0 2.78 6.15 7.46 5.56l4.39-1.31s-.88-7.76-3.95-9.52c-3.08-1.75-7.9-4.53-7.9-4.53s-3.22 1.32-8.64-.59c0 0-6.58 3.66-9.66 3.08 0 0-2.19 1.02-.14 5.26 0 0-6.3-1.46-5.56-8.48.73-7.03 4.53-6.59 4.53-6.59l9.66-1.32 7.32-.44s6.58.44 5.56-3.51l-4.39-3.95-3.95-.29s-1.32 2.49-5.71 1.46c0 0-2.2 2.93-1.46 5.42 0 0-4.54-2.93-2.78-10.1 1.75-7.17 4.09-3.95 4.09-3.95l13.03-1.17 7.02 2.63 7.03 4.98 2.48-9.22s7.61-.59 9.22 3.51 4.54 10.54 4.54 10.54.73 3.95 5.27 2.34c4.54-1.61 11.71-2.64 12.58-5.56.16-.53.17-1.25.09-2.1-2.77-.71-5.39-2.01-7.61-3.81 1.56.24 3.17.01 4.63-.6a5.19 5.19 0 0 1-.41-.2 42.22 42.22 0 0 1-8.71-6.04 42.37 42.37 0 0 1-3.65-3.69c-.82-.95-2.1-3.59-3.15-4.12 2.33 1.18 5.08 1.52 7.62.94-4.06-4.03-8.16-8.11-11.23-12.94-3.08-4.83-5.09-10.54-4.54-16.24.53-5.44 3.31-10.4 6.48-14.85.68 4.91 2.94 9.59 6.36 13.18-2.03-5.13-.62-11.15 2.53-15.67 3.16-4.52 7.85-7.75 12.71-10.35-1.98 7.03-1.03 14.84 2.58 21.2 3.53-4.32 7.92-7.92 12.85-10.52-1.54 2-1.18 4.82-.75 7.31 1.11 6.33 2.59 13.3 7.76 17.11 1.93 1.41 4.21 2.25 6.45 3.07-6.56 3.51-11.72 9.56-14.14 16.59z"/><path style="fill:#fff" d="M196.38 277.621c.538-.281.976-.693 1.392-1.123.417-.432.826-.872 1.127-1.358.639-.966.546-2.11.404-3.296a.5.5 0 1 1 .998-.043c-.017.605-.032 1.241-.165 1.879a3.865 3.865 0 0 1-.834 1.753c-.409.491-.889.877-1.365 1.251-.475.374-.986.734-1.557.937zM222.89 257.116l-1.768 6.335c-.296 1.046-.574 2.151-1.282 3.06-.696.915-1.908 1.414-3.067 1.247l.216-.138a15.146 15.146 0 0 0-.443 5.579.279.279 0 0 1-.246.306.275.275 0 0 1-.226-.08l-.006-.006c-1.757-1.774-3.448-3.756-4.328-6.217-.397-1.228-.687-2.54-.38-3.911.325-1.347 1.099-2.394 1.575-3.481a.5.5 0 1 1 .916.402l-.007.016-.005.01c-.569 1.17-1.33 2.171-1.616 3.267-.288 1.074-.082 2.321.255 3.45.74 2.295 2.308 4.28 3.99 6.076l-.478.22c-.15-1.935.064-3.891.625-5.738l.002-.006a.19.19 0 0 1 .215-.132 2.983 2.983 0 0 0 2.781-1.047c.681-.818.997-1.891 1.321-2.93l1.956-6.282zM229.19 266.148c.734.83 1.781 1.257 2.821 1.523 1.053.259 2.131.433 3.209.528 2.157.192 4.331.07 6.429-.359a.5.5 0 1 1 .162.986 22.996 22.996 0 0 1-6.655-.132 21.593 21.593 0 0 1-3.217-.785c-1.038-.349-2.082-.876-2.749-1.761zM225.904 289.91c1.259-3.142 2.809-6.219 4.962-8.933.406-.512 1.19.101.788.618-2.332 2.408-4.182 5.292-5.75 8.315zM204.13 293.111c7.579-2.521 6.339-2.365 12.705 2.222.542.401-.091 1.22-.615.788-5.986-4.984-4.487-4.872-12.09-3.01zM195.516 261.16c1.022-.495 2.11-1.063 2.631-2.007.518-.938.403-2.064.275-3.187a.5.5 0 1 1 .999-.041c-.018.58-.039 1.183-.15 1.788-.108.602-.323 1.218-.708 1.717-.382.502-.894.853-1.419 1.112-.528.261-1.079.442-1.628.618zM188.107 277.276c.377-.274.648-.651.85-1.053a5.28 5.28 0 0 0 .44-1.26c.083-.427.019-.794-.204-1.09-.219-.305-.56-.556-.931-.818a.502.502 0 1 1 .649-.761c.327.337.697.707.937 1.212.259.508.222 1.14.03 1.593a5.668 5.668 0 0 1-.709 1.256c-.285.382-.641.72-1.062.921z"/><path style="fill:#fff" d="M211.639 264.428c1.094-.541 2.408-.854 3.691-.462.64.202 1.219.601 1.651 1.144.429.538.715 1.263.647 2.03l-.002.025a.502.502 0 1 1-.988-.166c.234-.937-.465-2.098-1.486-2.567-1.052-.493-2.356-.399-3.513-.004zM186.132 261.592c.65-.265.724-1.042.855-1.643a6.375 6.375 0 0 0 .023-1.92 6.4 6.4 0 0 0-1.507-3.367.5.5 0 1 1 .792-.61 7.157 7.157 0 0 1 1.214 3.943 6.751 6.751 0 0 1-.278 2.01 5.422 5.422 0 0 1-.364.94c-.156.292-.399.586-.735.647zM178.378 279.895a7.435 7.435 0 0 0-.703-4.584 6.953 6.953 0 0 0-1.338-1.854c-.529-.521-1.185-1.045-1.701-.992a.503.503 0 1 1-.026-1.002l.04.002c.556.031 1.004.297 1.349.573.346.287.628.589.895.917a7.595 7.595 0 0 1 1.239 2.156c.589 1.54.678 3.243.245 4.784zM203.877 298.595c.846-.638 1.336-1.631 1.413-2.614a3.246 3.246 0 0 0-.189-1.42c-.152-.442-.442-.821-.734-.91a.506.506 0 1 1 .407-.919l.038.023c.664.4.899 1.05 1.012 1.605a3.876 3.876 0 0 1-.04 1.703c-.264 1.088-.972 2.036-1.907 2.532zM204.13 282.03c2.578 1.944 5.758 4.038 9.113 3.396 1.043-.208 2.099-.781 3.422-.777.652 0 .661.996.004 1.001-1.009-.106-2.084.345-3.298.522-3.599.441-6.711-1.896-9.241-4.142z"/></g><g><path style="fill:#191515" d="M312.542 416.418c18.26-7.478 37.93-13.915 57.423-10.854-5.561 1.513-10.425 5.423-13.098 10.528 11.365-3.809 24.958-4.56 34.348 2.889 2.551 2.023 4.665 4.559 7.249 6.541 7.313 5.609 18.024 5.942 26.08 1.464 8.056-4.478 13.323-13.273 14.292-22.439.969-9.166-2.124-18.536-7.697-25.878 7.137 2.714 11.866 9.927 13.317 17.423 1.451 7.497.082 15.259-1.986 22.61-2.366 8.408-5.74 16.708-11.378 23.38-5.637 6.672-13.803 11.573-22.535 11.773-6.753.154-13.247-2.434-19.375-5.275-2.959-1.372-6.066-2.849-9.316-2.578-7.497.625-11.425 9.768-18.542 12.206-8.558 2.931-17.289-4.845-26.327-4.491-1.453.057-2.997.379-4.011 1.422-1.38 1.42-1.212 4.031.34 5.262s4.133.8 5.201-.867c.367 2.668-2.322 4.726-4.837 5.687-8.26 3.156-17.597 1.292-25.872-1.824-8.275-3.116-16.145-7.454-24.776-9.375-10.924-2.432-22.278-.831-33.43.102-2.1.176-4.655.107-5.731-1.705-.772-1.3-.406-2.963.125-4.379 3.311-8.818 10.736-12.934 19.504-14.212 11.392-1.661 22.365-5.637 32.996-9.923 6.037-2.435 12.013-5.021 18.036-7.487z"/><path style="fill:#191515" d="M316.833 444.346a197.654 197.654 0 0 0-19.522.582c-6.471.508-12.886 1.442-19.225 2.605-6.337 1.189-12.596 2.692-18.723 4.569-1.53.477-3.062.934-4.573 1.46a168.013 168.013 0 0 0-4.576 1.58c-3.1 1.113-6.384 2.312-9.897 3.402-3.533 1.082-7.303 2.091-11.416 2.69a49.631 49.631 0 0 1-6.363.552c-.557.005-1.073.035-1.664.015l-1.769-.067a42.62 42.62 0 0 1-3.503-.361c-4.636-.689-9.174-2.138-13.529-4.582-2.169-1.234-4.3-2.687-6.28-4.525-1.007-.867-1.936-1.922-2.861-2.945-.872-1.12-1.766-2.206-2.505-3.477-1.568-2.438-2.723-5.261-3.48-8.131a30.543 30.543 0 0 1-.905-8.604c.206-5.609 1.762-10.56 3.835-14.912a45.515 45.515 0 0 1 3.564-6.141c1.269-1.885 2.67-3.643 4.135-5.316 2.939-3.343 6.196-6.237 9.588-8.779 6.779-5.07 14.239-8.645 21.404-11.328 7.192-2.697 14.183-4.596 20.693-6.4 13.65-3.733 26.897-6.461 39.354-9.821 12.43-3.342 24.136-7.162 33.921-12.522 4.825-2.619 8.942-5.645 11.236-8.292 2.352-2.696 2.431-4.288 2.291-5.099-.091-.405-.264-.984-.707-1.795-.435-.799-1.154-1.774-2.096-2.667a13.534 13.534 0 0 0-3.222-2.265c-.565-.289-1.13-.5-1.655-.665-.107-.054-.299-.098-.493-.144l-.557-.153c-.369-.109-.781-.15-1.161-.25-3.148-.595-7.134-.433-11.549.571-2.202.498-4.494 1.198-6.81 2.073-1.172.44-2.29.901-3.517 1.449a82.854 82.854 0 0 0-3.711 1.749c-5.045 2.481-10.44 5.627-16.391 9.058-2.978 1.712-6.101 3.489-9.414 5.257-3.314 1.78-6.855 3.494-10.365 5.111-14.163 6.373-29.619 11.034-46.089 12.497-4.111.353-8.267.559-12.461.48-4.185-.023-8.479-.351-12.691-.863-8.448-1.078-16.829-3.066-24.963-6.153-8.14-3.034-16.001-7.258-23.331-12.5l-2.699-2.059-1.342-1.042-1.303-1.106-2.588-2.237-2.49-2.376c-.41-.402-.831-.79-1.23-1.206l-1.174-1.277-2.33-2.575c-1.598-1.69-2.94-3.552-4.34-5.382-5.502-7.375-9.798-15.466-12.922-23.826-.722-2.101-1.507-4.2-2.132-6.323l-1.711-6.403-1.263-6.461c-.374-2.158-.588-4.326-.868-6.494-.9-8.673-.772-17.389.354-26 1.141-8.606 3.19-17.139 6.425-25.372 6.23-16.076 15.566-29.846 25.569-41.585a236.201 236.201 0 0 1 15.48-16.482c5.262-5.108 10.51-9.945 16.175-14.806 11.303-9.636 23.972-18.973 38.814-26.326 7.412-3.649 15.412-6.742 23.717-9 8.264-2.19 16.503-3.513 24.515-4.21 8.009-.684 15.827-.81 23.38-.568 3.775.118 7.5.311 11.317.592 3.815.29 7.688.687 11.608 1.209 7.838 1.036 15.908 2.666 24.042 5.145a128.438 128.438 0 0 1 12.193 4.428l3.028 1.338c1.007.466 2.01.971 3.013 1.461 2.024.959 3.953 2.07 5.907 3.145 7.724 4.435 14.849 9.768 21.314 15.784 6.405 6.076 12.209 12.802 17.097 20.215 1.208 1.863 2.422 3.722 3.514 5.665 1.145 1.907 2.176 3.888 3.198 5.874 1.026 1.988 1.927 4.028 2.86 6.087l1.323 3.211 1.209 3.275c3.054 8.813 5.099 18.319 5.192 28.75.021 5.212-.476 10.647-1.696 16.152-1.216 5.492-3.17 11.074-5.926 16.301-2.738 5.213-6.843 9.604-10.655 13.798-3.86 4.117-8.285 7.532-12.58 10.516-4.297 2.866-8.211 5.1-12.584 7.061-4.363 1.908-9.077 3.661-13.396 4.873-4.329 1.255-7.906 2.743-12.181 3.453-4.281.74-8.511 1.254-12.928 1.528-4.402.273-8.912.333-13.596.041-4.693-.313-9.555-.959-14.584-2.139-1.271-.324-2.511-.598-3.799-.993a193.231 193.231 0 0 1-3.85-1.224c-1.304-.49-2.605-.996-3.897-1.517-1.294-.525-2.613-1.189-3.906-1.805-5.195-2.598-10.349-6.078-14.903-10.398-1.119-1.103-2.236-2.212-3.298-3.368l-1.541-1.786-1.439-1.817a64.364 64.364 0 0 1-4.848-7.409c-2.773-4.955-4.672-9.778-6.133-14.314a106.506 106.506 0 0 1-2.577-9.701c-.215-1.005-.459-2.047-.645-3.023-.795-3.975-1.387-7.707-1.932-11.291l-1.447-9.995c-.466-3.072-.935-5.993-1.461-8.612-.54-2.586-1.098-5.019-1.755-7.083-.672-2.049-1.336-3.947-2.134-5.486-.168-.43-.407-.77-.608-1.149-.221-.368-.374-.763-.627-1.123-.495-.723-.912-1.487-1.495-2.195-1.019-1.48-2.319-2.891-3.709-4.295l-1.092-1.037c-.355-.354-.788-.665-1.173-1.007-.755-.694-1.654-1.305-2.49-1.967-1.781-1.242-3.627-2.488-5.676-3.561-4.015-2.236-8.558-3.998-13.233-5.351-2.444-.656-4.962-1.288-7.597-1.752a107.63 107.63 0 0 0-8.113-1.242c-11.149-1.341-23.561-1.188-36.839-.934l-.095.002c-14.04.269-25.64-10.896-25.909-24.936-.262-13.701 10.415-25.081 23.975-25.872 6.841-.39 13.883-.787 21.232-.869 7.327-.108 14.932.042 22.781.719 7.841.651 15.937 1.92 24.097 4.001 8.332 2.186 16.511 5.15 24.407 9.257 3.959 1.995 7.822 4.369 11.603 6.931 1.871 1.347 3.752 2.652 5.558 4.155.905.743 1.827 1.442 2.709 2.234l2.641 2.376c6.946 6.455 13.208 14.413 17.748 23.411 2.307 4.454 3.986 8.906 5.439 13.249 1.428 4.352 2.426 8.491 3.308 12.494.849 3.983 1.486 7.717 2.076 11.305l1.575 10.009c.506 3.076 1.016 6 1.578 8.631.135.679.294 1.275.437 1.917a51.858 51.858 0 0 0 1.363 4.946c.631 1.871 1.292 3.323 1.841 4.242.274.459.518.793.706 1.035.049.051.09.112.13.167a.62.62 0 0 1 .114.126c.092.071.192.132.255.23.353.305.823.661 1.654 1.082.24.086.41.223.684.317a7.7 7.7 0 0 1 .815.321c.329.085.654.183.975.294.32.112.737.17 1.096.275 1.538.351 3.379.618 5.413.751 2.049.12 4.295.089 6.621-.062a63.539 63.539 0 0 0 7.149-.875 57.835 57.835 0 0 0 6.795-1.575c2.182-.598 4.1-1.398 5.92-2.169 1.781-.805 3.28-1.7 4.61-2.55 1.222-.896 2.225-1.757 2.993-2.554.679-.832 1.243-1.559 1.641-2.329.376-.746.699-1.57.949-2.655.248-1.076.409-2.392.417-3.923.002-3.073-.692-6.955-2.041-10.874l-.533-1.473-.599-1.467c-.473-1.004-.909-2.064-1.434-3.07-.524-1.011-1.029-2.033-1.628-3.013-.543-1.008-1.189-1.964-1.802-2.938-2.52-3.862-5.552-7.441-8.888-10.684-3.387-3.189-7.099-6.03-11.052-8.348-1.005-.542-1.978-1.155-3.008-1.631l-1.527-.768-1.592-.72a73.918 73.918 0 0 0-6.793-2.53c-4.757-1.493-9.934-2.626-15.453-3.438-2.76-.404-5.593-.738-8.5-.998a211.838 211.838 0 0 0-8.879-.581c-5.923-.271-11.615-.226-17.052.161-5.429.397-10.56 1.19-15.356 2.381a83.08 83.08 0 0 0-14.137 5.113c-9.451 4.45-18.902 10.926-28.232 18.617-4.643 3.837-9.397 8.059-13.887 12.266-4.484 4.208-8.682 8.425-12.503 12.722-7.676 8.571-13.708 17.457-17.457 26.491-3.614 8.593-5.057 18.522-4.4 28.02.139 1.177.186 2.377.358 3.544.203 1.159.39 2.321.564 3.488.284 1.126.553 2.257.805 3.394.289 1.121.691 2.185 1.005 3.292 1.471 4.314 3.464 8.297 5.913 11.811.632.859 1.186 1.798 1.922 2.551l1.023 1.211.502.616c.175.201.378.382.564.576l1.127 1.16 1.212 1.101.6.559.647.521 1.284 1.058c3.571 2.69 7.591 5.089 12.047 6.89 4.412 1.876 9.199 3.199 14.102 4.009 2.47.38 4.902.675 7.461.772 2.547.148 5.141.102 7.754-.025a88.44 88.44 0 0 0 15.918-2.383c5.358-1.235 10.722-3.017 16.028-5.116 2.659-1.104 5.247-2.211 7.932-3.514 2.694-1.298 5.498-2.74 8.432-4.273 5.87-3.056 12.256-6.507 19.462-9.677a125.487 125.487 0 0 1 5.562-2.29 103.159 103.159 0 0 1 5.952-2.104c4.066-1.301 8.297-2.377 12.721-3.133 4.423-.753 9.047-1.187 13.85-1.132 4.795.051 9.787.615 14.77 1.861 2.514.643 4.917 1.387 7.456 2.4a51.852 51.852 0 0 1 7.457 3.697 52.804 52.804 0 0 1 12.456 10.386c3.594 4.088 6.653 8.811 8.852 14.219 2.193 5.386 3.481 11.537 3.274 17.879-.017 1.573-.245 3.165-.422 4.737-.217 1.557-.583 3.011-.922 4.507-.365 1.477-.889 2.902-1.376 4.335-.517 1.416-1.163 2.742-1.782 4.094-2.625 5.283-6.076 9.617-9.63 13.124-3.569 3.522-7.287 6.278-10.959 8.628-3.678 2.344-7.336 4.273-10.946 5.968-7.184 3.338-14.434 5.903-21.569 7.967-7.139 2.075-14.189 3.657-21.109 5.006-13.833 2.692-27.183 4.581-39.793 7.035-6.611 1.299-12.763 2.521-18.353 4.151-5.598 1.626-10.566 3.636-14.872 6.286-2.129 1.326-4.072 2.78-5.74 4.367-.831.794-1.622 1.608-2.314 2.467a19.525 19.525 0 0 0-1.767 2.441c-1.005 1.632-1.584 3.231-1.797 4.366a6.306 6.306 0 0 0-.124 1.442c.048.395.053.782.263 1.217.04.231.236.445.329.706.201.231.313.511.572.763.414.54 1.036 1.076 1.74 1.597.689.541 1.565.977 2.444 1.42.917.389 1.879.762 2.88 1.017a20.29 20.29 0 0 0 1.504.329l.753.116c.249.044.578.05.863.081 1.183.104 2.428.117 3.732.052 2.597-.108 5.434-.551 8.425-1.164 3.007-.636 6.168-1.428 9.529-2.247 1.669-.415 3.413-.815 5.151-1.195 1.731-.403 3.477-.734 5.217-1.082 6.968-1.358 13.997-2.285 21.031-2.855 7.033-.583 14.085-.714 21.099-.458 7.015.247 13.997.874 20.898 1.924a6.04 6.04 0 0 1-1.019 12.01l-.052-.001z"/><defs><path id="a" d="M390.922 257.341c-7.71 6.189-16.86 10.377-26.271 13.406-22.901 7.371-50.749 7.015-67.904-9.852-16.141-15.87-17.952-40.8-26.406-61.797-3.905-9.697-9.448-18.687-16.235-26.626-13.057-15.274-30.718-26.657-50.189-31.691a93.4 93.4 0 0 0-8.59-1.79c-22.328-3.579-45.876.852-65.458 12.152 2.973 11 13.122 18.998 25.03 18.77l.095-.002c.556-.011 1.101-.019 1.654-.029 12.652-.233 24.503-.322 35.186.963 2.787.326 5.501.731 8.113 1.242 2.635.465 5.154 1.096 7.597 1.752 4.674 1.353 9.218 3.116 13.233 5.351 1.824.954 3.482 2.046 5.081 3.151.198.137.399.273.595.41.836.662 1.735 1.273 2.49 1.967.385.342.818.653 1.173 1.007l1.092 1.037c1.39 1.405 2.69 2.815 3.709 4.295.583.709 1 1.472 1.495 2.195.253.36.406.755.627 1.123.201.379.44.72.608 1.149.799 1.54 1.462 3.437 2.134 5.486.657 2.064 1.215 4.497 1.756 7.083.525 2.62.994 5.54 1.461 8.612l1.447 9.995c.545 3.584 1.137 7.316 1.932 11.291.186.976.43 2.018.645 3.023.216 1.004.446 2.027.717 3.103.531 2.133 1.14 4.333 1.86 6.598 1.461 4.536 3.36 9.359 6.133 14.314a64.318 64.318 0 0 0 4.848 7.409l1.439 1.817 1.541 1.786c1.062 1.156 2.179 2.265 3.298 3.368 4.555 4.32 9.708 7.8 14.903 10.398 1.292.615 2.612 1.28 3.906 1.805 1.293.521 2.593 1.027 3.897 1.517a200 200 0 0 0 3.85 1.224c.099.03.195.052.294.081l.013-.004c4.066-1.301 8.297-2.377 12.721-3.133 4.423-.753 9.047-1.187 13.85-1.132 4.795.051 9.788.615 14.77 1.861 2.514.643 4.917 1.387 7.456 2.4.367.147.726.307 1.089.461a117.197 117.197 0 0 0 7.622-1.931c4.318-1.212 8.699-2.869 13.062-4.777 4.373-1.961 8.76-4.39 13.058-7.255 4.295-2.985 8.486-6.46 12.346-10.577 3.813-4.194 7.284-8.919 10.022-14.132 2.533-4.804 4.38-9.906 5.608-14.964-3.999 6.029-8.694 11.507-14.403 16.09z"/></defs><clipPath id="b"><use xlink:href="#a" style="overflow:visible"/></clipPath><g style="clip-path:url(#b)"><path style="fill:#fff" d="M142.855 183.164c2.287-1.382 4.057-3.513 5.733-5.687 1.686-2.192 3.371-4.384 4.956-6.637 3.15-4.496 5.919-9.358 7.093-14.733 1.219-5.344 1.129-10.963-.041-16.332-1.192-5.369-3.403-10.51-6.451-15.1a.215.215 0 0 1 .057-.297.215.215 0 0 1 .296.057 45.512 45.512 0 0 1 6.654 15.216c1.233 5.431 1.379 11.143.18 16.614-1.154 5.511-3.946 10.502-7.085 15.064-1.581 2.289-3.253 4.503-4.923 6.713-1.67 2.199-3.481 4.451-5.951 5.977a.5.5 0 0 1-.525-.85l.007-.005zM174.979 178.884c10.314-3.059 19.301-10.435 24.319-19.996 5.017-9.561 6.001-21.184 2.634-31.486a.213.213 0 0 1 .137-.269.215.215 0 0 1 .269.135c3.493 10.386 2.616 22.166-2.407 31.949-5.027 9.781-14.111 17.391-24.664 20.625a.5.5 0 1 1-.293-.956l.005-.002zM199.407 182.526a172.78 172.78 0 0 0 13.289-6.753c4.31-2.469 8.626-4.984 12.51-8.05 3.861-3.052 7.276-6.845 9.018-11.486 1.79-4.618 2.184-9.647 2.461-14.6a.214.214 0 0 1 .427.021c-.232 4.962-.571 10.039-2.355 14.782-1.74 4.777-5.215 8.707-9.103 11.838-3.919 3.153-8.227 5.715-12.533 8.238a173.361 173.361 0 0 1-13.296 6.917.5.5 0 1 1-.422-.907h.004zM210.665 195.53c5.305.764 10.698 1.035 16.055.63a73.76 73.76 0 0 0 15.832-2.841c5.168-1.484 10.145-3.603 14.863-6.183 2.353-1.294 4.628-2.748 6.634-4.518 1.999-1.764 3.719-3.89 4.719-6.365a.214.214 0 0 1 .397.159c-1.008 2.561-2.76 4.762-4.783 6.579-2.032 1.824-4.325 3.318-6.688 4.644-4.732 2.642-9.735 4.825-14.938 6.369a74.58 74.58 0 0 1-15.973 3.011c-5.414.457-10.878.233-16.264-.495a.501.501 0 0 1 .134-.991l.004.001h.008zM226.519 208.37c16.835 5.711 36.01 4.278 51.868-3.934a.214.214 0 0 1 .199.378c-15.876 8.436-35.218 10.121-52.382 4.505a.5.5 0 0 1 .311-.951l.004.002zM231.762 238.557c20.803 4.78 43.767-.831 60.071-14.755a.214.214 0 0 1 .279.323c-16.288 14.159-39.4 20.067-60.569 15.406a.5.5 0 1 1 .215-.977l.004.003zM241.724 266.191a266.35 266.35 0 0 0 33.658-5.346c5.54-1.245 11.064-2.671 16.243-4.976 5.149-2.283 9.991-5.579 13.234-10.242a.213.213 0 0 1 .297-.053c.096.067.12.199.054.296-3.261 4.775-8.163 8.168-13.351 10.519-5.219 2.375-10.774 3.857-16.318 5.152a267.144 267.144 0 0 1-33.72 5.646.5.5 0 1 1-.101-.995l.004-.001zM261.487 285.732c5.344-.014 10.675-.823 15.875-2.118 5.204-1.298 10.296-3.065 15.285-5.061 4.973-2.016 9.826-4.395 14.185-7.518 4.344-3.106 8.17-7.063 10.564-11.869a.214.214 0 0 1 .286-.096c.105.052.148.18.097.285-2.389 4.904-6.243 8.96-10.612 12.142-4.385 3.201-9.263 5.643-14.249 7.717-4.998 2.051-10.099 3.873-15.344 5.231-5.24 1.354-10.637 2.225-16.08 2.288a.5.5 0 0 1-.012-1h.005zM303.079 302.398c4.142-1.302 8.022-3.379 11.588-5.888 3.575-2.508 6.841-5.449 9.933-8.555 3.083-3.115 6.074-6.346 8.509-9.979 2.412-3.618 4.229-7.735 4.531-12.099a.213.213 0 0 1 .426.026c-.26 4.466-2.074 8.691-4.481 12.387-2.43 3.712-5.413 7.002-8.476 10.166-3.077 3.159-6.341 6.166-9.944 8.752-3.594 2.587-7.535 4.757-11.781 6.143a.5.5 0 1 1-.31-.95l.005-.003zM348.569 307.896c7.941-15.893 9.658-34.839 4.658-51.965a.214.214 0 0 1 .409-.122c5.214 17.178 3.712 36.317-4.17 52.529a.5.5 0 0 1-.899-.437l.002-.005zM368.51 294.804c8.244-13.197 9.79-30.407 3.96-44.939a.213.213 0 0 1 .395-.162c6.057 14.592 4.747 32.039-3.505 45.625a.5.5 0 1 1-.85-.524zM394.805 283.276c1.363-3.854 1.974-7.963 2-12.067.027-4.11-.513-8.222-1.449-12.236-1.882-8.052-5.27-15.668-8.641-23.233a.213.213 0 0 1 .389-.176c3.457 7.526 6.948 15.125 8.946 23.243.994 4.049 1.592 8.213 1.612 12.403.021 4.184-.552 8.403-1.912 12.394a.5.5 0 1 1-.945-.328zM161.514 178.344c4.035-3.018 7.73-6.507 10.876-10.445 3.143-3.934 5.729-8.333 7.459-13.067 1.726-4.727 2.553-9.795 2.358-14.833-.193-5.031-1.439-10.053-3.855-14.489a.215.215 0 0 1 .085-.29.214.214 0 0 1 .289.084c2.492 4.477 3.806 9.563 4.05 14.67.246 5.114-.544 10.27-2.256 15.1-1.714 4.832-4.302 9.329-7.458 13.357-3.159 4.032-6.877 7.609-10.945 10.712a.501.501 0 0 1-.607-.795l.004-.004zM221.611 187.638c7.309-.988 14.268-4.551 19.359-9.934 5.091-5.382 8.284-12.554 8.87-19.973a.213.213 0 0 1 .426.031c-.499 7.526-3.64 14.859-8.775 20.43-5.136 5.569-12.213 9.319-19.74 10.437a.5.5 0 0 1-.147-.989l.007-.002zM237.185 224.232c8.731.712 17.586 1.015 26.179-.745 4.278-.879 8.458-2.297 12.322-4.339 3.859-2.039 7.4-4.729 10.225-8.068a.214.214 0 0 1 .327.274c-2.828 3.418-6.393 6.187-10.283 8.297-3.897 2.114-8.118 3.596-12.445 4.535-8.685 1.877-17.632 1.663-26.402 1.044a.501.501 0 0 1 .07-.998h.007zM239.242 252.988c10.307.375 20.734-.37 30.672-3.213 4.957-1.42 9.77-3.372 14.27-5.899 4.497-2.525 8.68-5.634 12.293-9.323a.213.213 0 0 1 .306.298c-3.61 3.755-7.802 6.931-12.318 9.522-4.519 2.592-9.359 4.608-14.352 6.088-10.007 2.964-20.521 3.809-30.903 3.527a.499.499 0 1 1 .027-.999l.005-.001zM279.209 298.958c9.479-2.119 18.833-5.308 27.014-10.599 4.075-2.638 7.819-5.807 11.009-9.473 3.186-3.662 5.811-7.838 7.543-12.382a.214.214 0 0 1 .4.15c-1.708 4.614-4.322 8.867-7.511 12.604-3.192 3.742-6.95 6.986-11.05 9.698-8.228 5.436-17.653 8.748-27.182 10.977a.5.5 0 1 1-.228-.974l.005-.001zM328.071 312.641c13.244-11.233 21.433-28.275 21.9-45.72a.213.213 0 0 1 .427.009c-.281 17.574-8.335 34.896-21.676 46.47a.5.5 0 1 1-.655-.755l.004-.004zM360.492 300.577c1.774-2.943 3.039-6.186 3.911-9.528.874-3.346 1.367-6.792 1.627-10.254.521-6.935.146-13.923.333-20.909a.213.213 0 0 1 .427.008c-.092 6.965.38 13.947-.048 20.949-.215 3.497-.665 6.995-1.509 10.416-.842 3.417-2.091 6.762-3.881 9.826a.5.5 0 1 1-.864-.504c.001.001.003-.003.004-.004zM385.171 287.61c1.493-11.046.013-22.509-4.268-32.857a.214.214 0 0 1 .394-.167c4.486 10.344 6.192 21.901 4.866 33.149a.5.5 0 0 1-.993-.117l.001-.008zM254.111 280.191c11.164-2.342 22.318-4.93 32.921-9.132 5.292-2.098 10.431-4.604 15.26-7.622 4.826-3.016 9.34-6.553 13.289-10.659a.213.213 0 0 1 .309.295c-3.941 4.167-8.459 7.769-13.293 10.846-4.838 3.08-9.99 5.646-15.299 7.802-10.635 4.317-21.82 7.009-32.978 9.448a.5.5 0 1 1-.213-.977l.004-.001zM234.993 205.376c3.98-.888 8.016-1.118 11.956-1.75a72.274 72.274 0 0 0 11.642-2.81c3.803-1.239 7.495-2.814 11.049-4.654 3.557-1.837 6.945-3.996 10.164-6.381a.213.213 0 0 1 .258.34c-3.208 2.438-6.594 4.652-10.156 6.545-3.559 1.897-7.264 3.53-11.088 4.826a73.082 73.082 0 0 1-11.732 2.979c-3.985.686-8.005.966-11.87 1.879a.501.501 0 0 1-.23-.974h.007z"/></g><path style="fill:none;stroke:#fff;stroke-linecap:round;stroke-linejoin:round;stroke-miterlimit:10" d="M404.021 243c-3.997 6.03-7.39 9.758-13.099 14.341-7.71 6.189-16.86 10.377-26.271 13.406-22.901 7.371-50.749 7.015-67.904-9.852-16.141-15.87-17.952-40.8-26.406-61.797-3.905-9.697-9.448-18.687-16.235-26.626-13.057-15.274-30.718-26.657-50.189-31.691a93.4 93.4 0 0 0-8.59-1.79c-22.328-3.579-45.876.852-65.458 12.152 2.973 11 13.122 18.998 25.03 18.77l.095-.002c.556-.011 1.101-.019 1.654-.029 12.652-.233 24.503-.322 35.186.963 2.787.326 5.501.731 8.113 1.242 2.635.465 5.154 1.096 7.597 1.752 4.674 1.353 9.218 3.116 13.233 5.351 1.824.954 3.482 2.046 5.081 3.151.198.137.399.273.595.41.836.662 1.735 1.273 2.49 1.967.385.342.818.653 1.173 1.007l1.092 1.037c1.39 1.405 2.69 2.815 3.709 4.295.583.709 1 1.472 1.495 2.195.253.36.406.755.627 1.123.201.379.44.72.608 1.149.799 1.54 1.462 3.437 2.134 5.486.657 2.064 1.215 4.497 1.756 7.083.525 2.62.994 5.54 1.461 8.612M293.487 294.659c4.066-1.301 8.529-2.606 12.954-3.362 4.423-.753 9.047-1.187 13.85-1.132 4.795.051 9.788.615 14.77 1.861 2.514.643 4.917 1.387 7.456 2.4.367.147.726.307 1.089.461"/><defs><path id="c" d="M339.573 322.556c-5.388-5.869-14.087-7.14-22.052-7.313a129.448 129.448 0 0 0-46.228 7.494c-9.568 3.418-18.72 7.961-28.396 11.061-9.676 3.1-20.175 4.71-29.99 2.082-8.833-2.365-16.478-8.01-22.786-14.643-1.573-.511-3.126-1.061-4.623-1.697-4.455-1.801-8.476-4.199-12.047-6.89l-1.284-1.058-.647-.521-.601-.559-1.212-1.101-1.127-1.16c-.186-.194-.389-.376-.564-.576l-.502-.616-1.023-1.211c-.736-.753-1.29-1.692-1.922-2.551-2.449-3.514-4.442-7.497-5.913-11.811-.314-1.106-.717-2.171-1.005-3.292a124.029 124.029 0 0 0-.805-3.394 139.16 139.16 0 0 0-.564-3.488c-.173-1.167-.22-2.367-.358-3.544-.476-6.878.166-13.975 1.92-20.634-6.213 6.432-11.766 13.4-15.183 21.6-3.563 8.552-4.573 17.921-5.413 27.147-.529 5.817-1.006 11.658-.751 17.493.407 9.35 2.922 18.678 7.248 26.981l1.121.855c7.33 5.243 15.191 9.466 23.331 12.5 8.134 3.087 16.515 5.076 24.963 6.153 4.212.512 8.506.839 12.691.863 4.194.078 8.349-.127 12.46-.48 16.471-1.463 31.926-6.123 46.09-12.497 3.511-1.617 7.051-3.331 10.365-5.111 3.313-1.768 6.436-3.545 9.414-5.257 5.951-3.43 11.346-6.576 16.391-9.058a83.47 83.47 0 0 1 3.712-1.749 61.095 61.095 0 0 1 3.516-1.449 51.57 51.57 0 0 1 6.81-2.073c4.415-1.004 8.402-1.166 11.549-.571.381.1.792.141 1.161.25l.557.153c.193.046.385.09.493.144.524.165 1.089.377 1.655.665a13.554 13.554 0 0 1 3.222 2.265c.943.893 1.661 1.868 2.096 2.667.442.811.615 1.39.707 1.795.14.81.061 2.402-2.291 5.099-2.295 2.647-6.411 5.673-11.237 8.292-9.785 5.36-21.491 9.18-33.921 12.522-12.457 3.36-25.703 6.088-39.354 9.821-2.843.788-5.781 1.598-8.785 2.481l13.655-.472c8.457-.292 16.936-.586 25.302-1.849 11.232-1.695 22.135-5.119 32.776-9.095 9.718-3.631 19.67-8.034 26.16-16.128 6.492-8.092 8.234-20.893 1.219-28.535z"/></defs><clipPath id="d"><use xlink:href="#c" style="overflow:visible"/></clipPath><g style="clip-path:url(#d)"><path style="fill:#fff" d="M127.106 290.178c3.985-6.743 9.97-12.191 16.859-15.791 6.888-3.604 14.754-5.396 22.508-4.825a.213.213 0 0 1 .197.228.214.214 0 0 1-.226.198c-7.674-.47-15.412 1.4-22.145 5.029-6.735 3.626-12.53 9.048-16.33 15.664a.5.5 0 1 1-.863-.503zM129.629 300.557c9.878-9.922 23.498-15.933 37.41-16.563a.214.214 0 0 1 .022.427c-13.792.814-27.16 6.964-36.719 16.837a.5.5 0 1 1-.713-.701zM127.463 329.888c5.615-7.121 11.307-14.296 18.133-20.372 3.407-3.03 7.094-5.762 11.074-8 3.975-2.236 8.256-3.968 12.723-4.923a.213.213 0 0 1 .092.417c-4.409.992-8.623 2.749-12.533 5.002-3.914 2.255-7.536 4.999-10.879 8.035-6.701 6.091-12.284 13.278-17.821 20.456a.5.5 0 0 1-.792-.61l.003-.005zM142.241 363.117c.088-3.31 1.011-6.52 2.309-9.496 1.288-2.996 2.956-5.773 4.643-8.523 3.42-5.481 7.394-10.604 11.76-15.355 4.392-4.73 9.232-9.035 14.4-12.892a105.572 105.572 0 0 1 16.54-9.975.214.214 0 0 1 .186.384 105.021 105.021 0 0 0-16.385 10.048c-5.11 3.875-9.889 8.189-14.216 12.918-4.301 4.75-8.207 9.864-11.557 15.323-1.654 2.74-3.285 5.507-4.518 8.438-1.246 2.916-2.103 6.012-2.163 9.151a.5.5 0 0 1-1-.014l.001-.007zM167.467 371.962c-.529-5.37.844-10.702 2.936-15.529 2.101-4.861 4.822-9.375 7.485-13.895 2.7-4.503 5.521-8.967 8.88-13.035 3.343-4.063 7.238-7.74 11.787-10.439a.214.214 0 0 1 .219.367c-4.471 2.708-8.287 6.376-11.564 10.433-3.292 4.061-6.057 8.523-8.708 13.037-2.619 4.538-5.288 9.065-7.31 13.866-2.019 4.774-3.284 9.96-2.731 15.09a.5.5 0 0 1-.993.113l-.001-.008zM204.808 385.424c-3.152-20.357 2.487-41.838 15.157-57.975a.213.213 0 0 1 .337.262c-12.446 16.156-17.806 37.513-14.507 57.554a.5.5 0 1 1-.987.163v-.004zM228.571 379.193c-1.739-4.359-2.648-9.008-2.917-13.661-.27-4.66.083-9.332.87-13.912 1.581-9.181 4.808-17.927 8.005-26.595a.213.213 0 0 1 .401.146c-3.108 8.7-6.231 17.455-7.702 26.566-.732 4.543-1.031 9.161-.718 13.741.312 4.574 1.252 9.114 2.989 13.34a.5.5 0 0 1-.924.381l-.004-.006zM254.048 365.509c-2.124-3.537-3.479-7.485-4.208-11.508-.73-4.031-.858-8.145-.548-12.207.628-8.148 2.904-16.003 5.154-23.769a.213.213 0 0 1 .41.116c-2.159 7.792-4.33 15.646-4.853 23.703-.259 4.014-.084 8.062.678 11.999.76 3.931 2.128 7.754 4.221 11.147a.5.5 0 1 1-.854.519zM272.547 358.949c.742-3.939-.287-7.998-.872-12.065-.557-4.1-.725-8.258-.364-12.376a55.969 55.969 0 0 1 2.335-12.142c1.191-3.953 2.888-7.742 4.916-11.329a.213.213 0 0 1 .291-.081c.102.058.136.19.08.292-1.97 3.582-3.608 7.355-4.741 11.283a55.305 55.305 0 0 0-2.169 12.03c-.309 4.07-.094 8.168.5 12.196.611 4 1.743 8.125 1.008 12.372a.5.5 0 0 1-.985-.171l.001-.009zM290.004 354.679c-.163-7.85.1-15.808 1.949-23.505.924-3.839 2.254-7.588 4.064-11.101 1.808-3.509 4.109-6.782 6.923-9.559a.213.213 0 0 1 .302.302c-2.744 2.775-4.974 6.03-6.716 9.515-1.744 3.488-3.012 7.205-3.878 11.005-1.734 7.623-1.901 15.504-1.644 23.315a.5.5 0 1 1-.999.033l-.001-.005zM304.858 350.958c4.85-16.836 15.08-32.029 28.797-42.831a.213.213 0 0 1 .266.334c-13.526 10.894-23.493 26.086-28.1 42.768a.5.5 0 0 1-.964-.266l.001-.005zM321.339 342.737c3.625-4.266 9.124-6.804 14.678-6.812 5.554-.003 11.014 2.524 14.59 6.717a.214.214 0 0 1-.323.28c-3.561-4.033-8.925-6.383-14.26-6.283-5.335.098-10.564 2.644-13.917 6.739a.5.5 0 1 1-.768-.641zM322.159 347.555c5.814 2.652 9.757 8.716 9.873 14.987a.213.213 0 0 1-.427.013c-.296-6.09-4.327-11.783-9.846-14.084a.5.5 0 0 1 .385-.923l.015.007zM311.739 354.411c4.662 3.672 7.636 9.303 8.065 15.138a.214.214 0 0 1-.425.038c-.606-5.694-3.697-11.04-8.245-14.38a.5.5 0 1 1 .592-.806l.013.01zM294.268 357.324c2.412.968 4.15 2.915 5.561 4.881a35.346 35.346 0 0 1 3.592 6.358 35.345 35.345 0 0 1 2.209 6.943c.511 2.377.735 4.809.745 7.234a.213.213 0 0 1-.213.214.217.217 0 0 1-.214-.212c-.057-2.394-.326-4.786-.875-7.115a34.658 34.658 0 0 0-2.303-6.774 34.617 34.617 0 0 0-3.632-6.144c-1.407-1.889-3.092-3.653-5.23-4.454a.499.499 0 1 1 .349-.937c.002.003.008.005.011.006zM276.409 362.339c1.17-.211 2.269.355 3.012 1.031.776.679 1.352 1.521 1.846 2.348 1.029 1.657 1.783 3.468 2.33 5.327 1.071 3.73 1.155 7.727.202 11.469a.214.214 0 0 1-.415-.102c.84-3.687.656-7.579-.471-11.163-.574-1.786-1.345-3.514-2.372-5.078-.502-.796-1.044-1.533-1.725-2.099-.666-.572-1.473-.911-2.222-.753a.501.501 0 0 1-.207-.979.059.059 0 0 1 .013-.002l.009.001zM255.567 367.983c.221-.107.516-.117.734-.043.222.07.381.186.512.302.254.23.435.505.56.75.241.469.497.93.724 1.406.452.952.866 1.922 1.218 2.913a31.055 31.055 0 0 1 1.506 6.11c.587 4.155.334 8.424-.792 12.452a.213.213 0 0 1-.412-.111c1.018-3.993 1.165-8.188.499-12.234a30.227 30.227 0 0 0-1.603-5.92 30.299 30.299 0 0 0-1.247-2.799c-.23-.456-.489-.896-.732-1.344a1.697 1.697 0 0 0-.369-.488c-.152-.119-.183-.092-.177-.089a.524.524 0 1 1-.637-.803l.216-.102zM134.289 345.983c4.293-9.036 10.351-17.089 17.069-24.396 6.731-7.324 14.129-13.966 21.524-20.57a.214.214 0 0 1 .286.317c-7.33 6.674-14.653 13.378-21.282 20.733-6.617 7.337-12.542 15.384-16.692 24.341a.5.5 0 0 1-.908-.421l.003-.004zM184.67 378.084a161.62 161.62 0 0 1 26.599-58.995.213.213 0 0 1 .347.249c-12.523 17.651-21.412 37.844-25.97 58.961a.5.5 0 1 1-.977-.211l.001-.004z"/></g><path style="fill:none;stroke:#fff;stroke-linecap:round;stroke-linejoin:round;stroke-miterlimit:10" d="M157.991 257.134c-6.213 6.432-11.766 13.4-15.183 21.6-3.563 8.552-4.574 17.921-5.413 27.147-.529 5.817-1.005 11.658-.751 17.493.408 9.35 2.922 18.678 7.249 26.981l1.831 1.665M240.609 378.636l13.655-.472c8.457-.292 16.936-.586 25.302-1.849 11.232-1.695 22.135-5.119 32.776-9.095 9.718-3.631 19.67-8.034 26.16-16.128 6.49-8.093 8.232-20.894 1.217-28.536-5.387-5.869-14.087-7.14-22.052-7.313a129.448 129.448 0 0 0-46.228 7.494c-9.568 3.418-18.719 7.961-28.396 11.061-9.676 3.1-20.175 4.71-29.99 2.082-8.833-2.365-16.478-8.01-22.786-14.643"/><path style="fill:#fff" d="M273.158 430.616c8.478-.683 16.99-1.135 25.51-.856 4.257.144 8.52.464 12.733 1.209 2.104.377 4.197.864 6.232 1.575 1.015.362 2.013.787 2.967 1.32a10.1 10.1 0 0 1 1.374.916c.436.37.841.698 1.175 1.314a.333.333 0 0 1-.135.452l-.026.013-.023.01c-4.542 1.953-9.203 3.48-13.899 4.92-4.7 1.419-9.451 2.656-14.224 3.79-4.774 1.133-9.583 2.11-14.405 3.008-2.41.457-4.833.835-7.249 1.256l-7.274 1.099a.213.213 0 0 1-.243-.179.218.218 0 0 1 .183-.244l7.259-1.136c2.41-.433 4.828-.823 7.232-1.292 4.81-.922 9.605-1.922 14.363-3.077 4.757-1.156 9.49-2.415 14.167-3.854 4.664-1.456 9.327-3.015 13.783-4.958l-.184.475c-.176-.321-.581-.721-.962-1.019a9.337 9.337 0 0 0-1.278-.841 18.689 18.689 0 0 0-2.854-1.25c-1.98-.68-4.04-1.15-6.116-1.51-4.159-.713-8.391-1.01-12.622-1.13-8.468-.234-16.949.261-25.397.986a.5.5 0 0 1-.092-.996l.005-.001z"/><path style="fill:#fff" d="M302.435 429.75c4.192.03 8.34-1.003 12.264-2.539 3.937-1.536 7.69-3.542 11.441-5.549 3.751-2.008 7.518-4.039 11.496-5.629 3.964-1.588 8.186-2.706 12.492-2.757a.213.213 0 0 1 .009.427c-4.237.098-8.381 1.243-12.286 2.859-3.918 1.617-7.641 3.677-11.37 5.727-3.729 2.049-7.481 4.111-11.466 5.718-3.969 1.605-8.225 2.724-12.578 2.742a.5.5 0 1 1-.002-.999zM318.762 432.791c4.893.636 9.871-.278 14.608-1.758 4.763-1.463 9.383-3.431 14.163-5.016 4.758-1.586 9.782-2.807 14.888-2.513 5.114.264 9.956 2.155 14.401 4.473 4.471 2.325 8.674 5.075 13.088 7.412 4.392 2.335 9.088 4.266 14.047 4.722 9.89.901 20.181-3.6 26.067-11.661a.214.214 0 0 1 .298-.048.214.214 0 0 1 .048.298c-5.947 8.219-16.363 12.846-26.464 11.978-5.075-.443-9.858-2.39-14.295-4.722-4.459-2.335-8.677-5.065-13.116-7.346-4.416-2.276-9.161-4.093-14.117-4.323-4.953-.262-9.865.947-14.573 2.542-4.729 1.593-9.342 3.585-14.16 5.091-4.788 1.52-9.907 2.502-15.011 1.864a.5.5 0 1 1 .124-.992l.004-.001zM314.043 438.981c4.332-1.299 8.897-1.552 13.346-1.079 2.225.252 4.435.678 6.576 1.348 2.143.658 4.2 1.521 6.242 2.379 4.058 1.719 8.189 3.468 12.585 3.638a20.596 20.596 0 0 0 12.4-3.577.213.213 0 0 1 .244.35 21.095 21.095 0 0 1-12.664 3.799c-4.534-.128-8.769-1.878-12.84-3.548-2.049-.835-4.094-1.665-6.195-2.285-2.095-.631-4.26-1.024-6.436-1.248-4.351-.418-8.806-.116-12.959 1.178l-.005.002a.5.5 0 1 1-.297-.955l.003-.002zM285.008 446.93c7.162.536 14.221 2.743 20.268 6.616 3.06 1.905 5.614 4.432 8.822 5.906a24.406 24.406 0 0 0 10.181 2.458.213.213 0 0 1-.005.427 24.916 24.916 0 0 1-10.422-2.37c-1.633-.752-3.164-1.731-4.603-2.784-1.439-1.059-2.85-2.113-4.353-3.032-5.99-3.725-12.945-5.792-19.954-6.223a.5.5 0 1 1 .057-.999l.009.001zM348.028 235.397a35.061 35.061 0 0 0 3.74-5.952c1.044-2.108 1.819-4.341 2.419-6.614.611-2.275.921-4.624 1.052-6.973a32.608 32.608 0 0 0-.359-7.048c-.674-4.677-2.496-9.129-4.988-13.151-2.491-4.037-5.54-7.709-8.589-11.365a.213.213 0 0 1 .326-.276c3.086 3.626 6.185 7.281 8.746 11.339 2.561 4.038 4.474 8.573 5.209 13.34.402 2.373.556 4.79.439 7.196-.109 2.403-.403 4.809-1.005 7.145-.591 2.335-1.363 4.633-2.414 6.81a36.054 36.054 0 0 1-3.79 6.167.501.501 0 0 1-.795-.607l.003-.004.006-.007zM211.673 430.487c-.615 2.772.634 5.668 2.427 7.917 1.816 2.282 4.217 4.108 6.781 5.542a26.332 26.332 0 0 0 8.344 2.859 27.97 27.97 0 0 0 4.422.328 27.175 27.175 0 0 0 4.415-.459l.005-.001a.213.213 0 0 1 .082.419c-1.479.3-2.98.485-4.49.54a28.6 28.6 0 0 1-4.52-.262 26.952 26.952 0 0 1-8.595-2.794c-2.663-1.437-5.155-3.26-7.111-5.634-.968-1.186-1.794-2.515-2.324-3.988-.538-1.464-.722-3.098-.413-4.671a.5.5 0 1 1 .977.204z"/><path style="fill:none;stroke:#fff;stroke-linecap:round;stroke-linejoin:round;stroke-miterlimit:10" d="M303.345 238.567c11.682 13.943 32.946 16.708 50.171 10.864 6.315-2.142 12.481-5.432 16.545-10.718 3.045-3.961 4.729-8.811 5.772-13.696 2.846-13.329 1.137-27.587-4.779-39.866-5.916-12.278-16.002-22.501-28.199-28.582-15.217-7.586-54.041-16.542-77.507-10.623M109.425 298.76c-2.423-26.676 6.466-54.765 23.388-75.529 3.976-4.879 8.387-9.385 12.869-13.804 14.3-14.097 29.798-27.637 48.408-35.18M211.01 431.127c1.559-48.493 59.124-38.391 92.216-46.632 28.676-6.079 78.887-43.338 45.062-74.342-27.197-18.861-63.393-9.061-93.482.956-10.805 3.791-20.05 8.457-32.729 13.068M242.991 216.633s4.477 46.92 24.24 63.759c0 0 15.599 12.132 26.016 14.267"/><path style="fill:none;stroke:#fff;stroke-linecap:round;stroke-linejoin:round;stroke-miterlimit:10" d="M286.701 172.39s-12.728-26.975-46.093-42.34c0 0-9.153-3.782-14.17-5.093"/></g><g><path style="fill:#191515" d="M164.75 359.75c-.63-.66-1.13-1.27-1.43-1.8.5.68.98 1.28 1.43 1.8z"/><path style="fill:#191515" d="M220.93 333.991c3.46 4.37 6.04 9.43 7.54 14.8-1.63-1.93-4.46-2.18-6.98-2.28-6.42-.27-13.55-.31-18.37 3.94-.72.63-1.36 1.34-1.95 2.09-1.4 8.7-8.6 20.68-8.6 20.68l-17.76 22.9-2.64 5.94 1.35 10.12s2.76 9.85-8.96 12.49l-5.34-1.27s-9.12 4.57-12.16-4.91c0 0 5.8 3.46 9.3.3l2.85-3.59s-5.15-5.86-8.68-5.55c-3.52.32-9.08.8-9.08.8s-1.88 2.92-7.41 4.46c0 0-3.32 6.76-6.17 8.04 0 0-1.22 2.09 2.89 4.4 0 0-6 2.4-9.41-3.78-3.42-6.18-.05-8-.05-8l7.17-6.6 5.76-4.54s5.65-3.41 2.55-6.06l-5.86-.73-3.41 2.01s.34 2.8-3.85 4.47c0 0-.12 3.65 1.9 5.28 0 0-5.4.19-8.06-6.7-2.65-6.88 1.11-5.58 1.11-5.58l10.01-8.41 7.27-1.85 8.61.06-.31-.86-3.21-2.39-6.05-4.35s-2.56.18-4.41 1.11c-1.85.93-1.96-.77-3.5-.41-1.53.35-3.45 5.79-3.45 5.79-3.08-3.91 2.38-10.4 2.38-10.4l12.33-4.84s11.96 4.58 12.56 4.98c3.67 2.44 9.75 6.05 9.75 6.05s2.86 2.82 5.66-1.1c2.8-3.91 8.1-8.85 7.15-11.75-.55-1.67-3.42-2.991-6-5.341-.93-.83-1.82-2.799-2.56-3.559a.902.902 0 0 0-.09-.1c-.45-.52-.93-1.12-1.43-1.8-.01-.01-.01-.02-.01-.03-3.63-4.98-7.78-13.8-2.87-24.34l1.69-2.52c-.14-.76-.23-1.51-.31-2.12-.48-3.42-.18-6.96.92-10.23 1.45 2.01 3.25 3.78 5.29 5.19.97-4.44 3.49-8.53 7.04-11.38-.57 1.47-.69 3.1-.41 4.65.1-.12.19-.24.29-.36 2.27-2.72 4.88-5.15 7.75-7.22 1.41-1.01 2.87-1.94 4.39-2.78 1.11-.6 3.95-1.29 4.7-2.2-1.66 2.02-2.57 4.63-2.55 7.25 4.81-3.11 9.67-6.25 15.04-8.23 5.37-1.97 11.38-2.73 16.83-.97 5.21 1.67 9.46 5.45 13.13 9.5-4.94-.39-10 .82-14.23 3.4 5.44-.89 11.03 1.76 14.77 5.81 3.75 4.05 5.9 9.32 7.41 14.62-6.45-3.44-14.28-4.171-21.26-2z"/><path style="fill:none;stroke:#fff;stroke-linecap:round;stroke-linejoin:round;stroke-miterlimit:10" d="M201.799 351.856c.499-.601.731-.893 1.319-1.41 4.825-4.247 11.948-4.209 18.37-3.938 2.523.107 5.354.356 6.983 2.285a42.136 42.136 0 0 0-7.544-14.797c6.976-2.175 14.81-1.44 21.259 1.995-1.506-5.305-3.657-10.574-7.404-14.62-3.747-4.046-9.334-6.699-14.777-5.812a23.979 23.979 0 0 1 14.235-3.402c-3.674-4.045-7.926-7.825-13.128-9.499-5.451-1.754-11.461-1.002-16.834.977-5.374 1.979-10.232 5.114-15.04 8.224a11.378 11.378 0 0 1 2.549-7.249c-.747.913-3.593 1.599-4.698 2.205a42.188 42.188 0 0 0-4.387 2.774 42.63 42.63 0 0 0-7.755 7.223c-.097.117-.189.242-.286.359-.286-1.552-.163-3.178.409-4.649a20.208 20.208 0 0 0-7.039 11.379 21.77 21.77 0 0 1-5.294-5.195c-1.098 3.279-1.399 6.813-.922 10.235.095.682.078 1.238.243 2.077"/><path style="fill:#191515" d="m167.4 362.271-.19.04s-1.02-.87-2.37-2.46c.74.76 1.63 1.589 2.56 2.42z"/><path style="fill:#fff" d="M134.336 414.804a6.769 6.769 0 0 1-3.672-2.752l-.005-.007a.503.503 0 1 1 .892-.454c.487 1.297 1.474 2.476 2.785 3.213zM141.64 410.381c-1.836-1.504-2.794-4.143-2.22-6.654l.001-.006a.502.502 0 1 1 .957.294c-.789 2.025-.346 4.619 1.262 6.366zM156.838 417.944c.681-.911 1.559-1.6 2.123-2.611.625-1.021 1.893-1.459 3.04-1.487 2.09-.159 4.556-.024 6.108-1.559.48-.482 1.201.285.68.733-1.932 1.636-4.49 1.32-6.768 1.308-1.112-.038-2.184.213-2.882 1.143-.62.938-1.573 1.623-2.301 2.473zM171.871 373.73c.672-1.092 1.347-2.193 1.804-3.379.456-1.176.68-2.462.458-3.669-.222-1.209-.935-2.255-1.672-3.293-.73-1.039-1.551-2.135-1.885-3.529a.5.5 0 1 1 .973-.235l.007.036c.189 1.146.859 2.225 1.531 3.315.668 1.086 1.381 2.274 1.54 3.632.156 1.344-.179 2.667-.722 3.841-.546 1.181-1.293 2.235-2.034 3.281zM127.218 399.84c-.841-.347-1.445-1.168-1.753-2.051-.313-.893-.368-1.845-.425-2.736a.501.501 0 1 1 .999.03c-.11.885-.217 1.74-.09 2.583.127.824.512 1.675 1.269 2.174zM135.741 398.293c-.979-1.491-1.086-3.621-.085-5.336l.005-.009a.502.502 0 1 1 .81.588c-1.049 1.186-1.416 3.109-.73 4.757zM134.76 379.453c.059-1.593.714-3.217 1.891-4.468l.005-.006a.503.503 0 1 1 .652.758c-1.21.836-2.159 2.17-2.548 3.716zM143.418 385.888c-.425-1.081-.183-2.353.376-3.393.566-1.054 1.415-1.911 2.212-2.722a.502.502 0 1 1 .66.752c-.907.686-1.793 1.355-2.449 2.237-.639.865-1.057 1.998-.799 3.126zM164.548 359.467c-2.622-2.797-4.642-6.187-5.756-9.883-1.156-3.705-.945-7.744.126-11.448 1.066-3.733 2.783-7.205 4.748-10.548.524-.828 1.151-1.629 1.945-2.271.791-.639 1.688-1.098 2.584-1.487a37.262 37.262 0 0 1 5.516-1.869.5.5 0 0 1 .247.969l-.011.003a36.527 36.527 0 0 0-5.411 1.703c-.868.355-1.703.765-2.419 1.318-.713.551-1.304 1.265-1.821 2.044-1.986 3.216-3.779 6.648-4.896 10.278-1.129 3.619-1.424 7.556-.365 11.24 1.019 3.677 2.953 7.099 5.513 9.951zM200.388 355.778c.599-1.608.911-3.319.93-5.025.019-.854-.08-1.705-.25-2.536-.159-.837-.48-1.627-.837-2.39a.154.154 0 0 1 .008-.146l3.745-6.073-.04.14a26.338 26.338 0 0 0-.582-4.217 23.714 23.714 0 0 0-1.261-4.053c-.545-1.301-1.232-2.537-2.086-3.636-.859-1.094-1.897-2.03-3.081-2.716a.5.5 0 1 1 .495-.869l.015.009c1.287.794 2.386 1.851 3.269 3.045.879 1.2 1.56 2.519 2.087 3.885a24.45 24.45 0 0 1 1.18 4.209c.266 1.432.44 2.869.471 4.336a.245.245 0 0 1-.04.141l-3.923 5.959.008-.146c.347.799.652 1.62.79 2.479.149.853.224 1.72.18 2.583a14.988 14.988 0 0 1-1.078 5.021zM135.266 403.605l3.811-3.141c1.287-1.021 2.477-2.177 3.985-2.979 1.519-.79 3.279-1.015 4.956-.914 1.689.095 3.329.461 4.935.837a.5.5 0 1 1-.228.974c-.008-.002-.018-.004-.025-.007-1.575-.454-3.145-.886-4.742-1.057-1.589-.175-3.222-.048-4.677.615-1.45.674-2.716 1.771-4.051 2.727l-3.964 2.945zM137.383 386.923l4.201-.161c1.404-.038 2.79-.145 4.219-.115.713.026 1.441.112 2.147.339.713.225 1.351.605 1.948.976l3.569 2.223a.5.5 0 1 1-.554.832l-3.43-2.431c-.568-.401-1.126-.777-1.742-1.012-.617-.24-1.289-.364-1.971-.429-1.37-.111-2.788-.089-4.184-.134l-4.203-.088zM156.838 383.303c1.014.033 2.027.183 3.025.049a9.892 9.892 0 0 0 2.879-.769c1.824-.779 3.396-2.088 4.452-3.699a.5.5 0 1 1 .814.58 10.835 10.835 0 0 1-5.088 3.586c-.983.336-2.012.523-3.04.551-1.032.052-2.035-.183-3.042-.298zM172.514 405.256a30.785 30.785 0 0 0-1.894-6.295 31.093 31.093 0 0 0-1.436-2.941c-.521-.955-1.124-1.986-1.231-3.246a.5.5 0 1 1 .999-.044c-.001.967.443 1.957.902 2.953a30.968 30.968 0 0 1 2.66 9.573zM120.408 421.731a7.506 7.506 0 0 0 3.819 1.273c.663.048 1.341-.095 2.004-.154.673-.094 1.334-.22 1.907-.453a.5.5 0 1 1 .378.927c-.019.008-.043.015-.062.021-.74.199-1.46.238-2.158.252-.713-.021-1.414.04-2.125-.096a7.759 7.759 0 0 1-3.763-1.77zM118.382 397.615c.073 1.524.622 3.029 1.616 4.11a4.725 4.725 0 0 0 1.77 1.205c.672.268 1.397.421 2.145.578a.502.502 0 1 1-.258.967c-.728-.238-1.487-.484-2.204-.865a5.366 5.366 0 0 1-1.838-1.567c-.953-1.299-1.322-2.904-1.231-4.428zM126.472 375.761c.017.714-.055 1.472.151 2.093.209.615.687 1.087 1.195 1.588a.504.504 0 1 1-.78.626c-.38-.607-.83-1.305-.905-2.118-.059-.804.196-1.483.339-2.189z"/><g><path style="fill:#fff" d="M156.438 418.992c.886.244 1.773.675 2.424 1.436.636.755 1.006 1.858.652 2.961l-.007.021a.504.504 0 1 1-.917-.405c.359-.626.292-1.554-.135-2.286-.431-.751-1.187-1.33-2.017-1.727z"/></g></g><g><path style="fill:#191515" d="M377.87 262.171c.86-.15 1.64-.33 2.33-.52-.91.3-1.7.5-2.33.52zM391.53 229.411c-.74-.13-1.48-.22-2.22-.29-4.31-.4-8.71.16-12.8 1.61 1.93-3.96 4.1-6.86 6.4-7.24.04-.01.08-.01.12-.01 1.91-.27 4.09.64 6.33 2.19.64 1.289 1.41 2.52 2.17 3.74z"/><path style="fill:#191515" d="m438.69 289.801-3.45 4.28s.19 10.2-9.67 8.85c0 0 5.61-3.74 4.28-8.26l-2.02-4.12s-7.51 2.12-8.74 5.44c-1.23 3.32-3.19 8.54-3.19 8.54s1.82 2.96.82 8.61c0 0 4.68 5.9 4.6 9.03 0 0 1.37 2 5.22-.71 0 0-.42 6.45-7.47 6.87-7.05.41-7.23-3.41-7.23-3.41l-2.87-9.32-1.62-7.15s-.64-6.57-4.37-4.91l-3.19 4.97.36 3.95s2.66.89 2.37 5.39c0 0 3.23 1.69 5.57.58-.12.28-2.37 4.92-9.51 4.37-7.36-.57-4.56-3.4-4.56-3.4l-3.27-12.66 1.46-7.36 3.77-7.74-.93-.09-3.53 1.86L385 297s-.95 2.38-.9 4.45c.04 2.07-1.55 1.44-1.89 2.98-.34 1.54 3.75 5.62 3.75 5.62-4.87 1.09-8.36-6.64-8.36-6.64l.94-13.2 8.36-7.76.11.03c.35-.59.82-1.1 1.44-1.47 3.78-2.25 9.66-6.19 9.66-6.19s3.507-2.284 1.45-5.57c-2.92-4.664-4.5-11.13-7.53-11.52-1.74-.22-5.2 1.3-8.43 2.62-1.17.49-2.32.95-3.33 1.28-.03.01-.05.02-.07.02-.69.19-1.47.37-2.33.52-.01.01-.02.01-.03.01-6.06 1.11-15.77 1.03-23.12-7.91l-1.55-2.61c-.74-.21-1.45-.45-2.05-.64-3.29-1.04-6.35-2.83-8.84-5.24 2.45-.44 4.82-1.3 6.97-2.54-3.59-2.78-6.19-6.83-7.23-11.25 1.08 1.15 2.49 1.96 4.02 2.37-.07-.14-.14-.28-.21-.41a42.721 42.721 0 0 1-3.17-10.11c-.31-1.71-.52-3.43-.61-5.16-.07-1.26.53-4.12.03-5.19 1.11 2.37 3.08 4.32 5.44 5.43-.73-5.68-1.47-11.42-.93-17.12.53-5.7 2.44-11.45 6.37-15.61 3.75-3.98 8.99-6.18 14.23-7.75a23.981 23.981 0 0 0-3.07 14.31c1.55-5.3 6.35-9.2 11.62-10.83 5.26-1.64 10.94-1.31 16.38-.38-5.88 4.34-9.92 11.09-10.96 18.32a42.177 42.177 0 0 1 16.6-.43c-2.44.64-3.89 3.09-5.07 5.32-3.01 5.68-6.12 12.09-4.36 18.27.26.92.62 1.79 1.03 2.65-2.24-1.55-4.42-2.46-6.33-2.19-.04 0-.08 0-.12.01-2.3.38-4.47 3.28-6.4 7.24 4.09-1.45 8.49-2.01 12.8-1.61.74.07 1.48.16 2.22.29-.76-1.22-1.53-2.45-2.17-3.74 7.25 5 14.97 16.69 14.97 16.69l13.01 25.89 4.23 4.94 9.71 3.15c0 .001 10.08 1.751 7.41 13.461z"/><path style="fill:#191515" d="M391.53 229.411c-.74-.13-1.48-.22-2.22-.29-4.31-.4-8.71.16-12.8 1.61 1.93-3.96 4.1-6.86 6.4-7.24.04-.01.08-.01.12-.01 1.91-.27 4.09.64 6.33 2.19.64 1.289 1.41 2.52 2.17 3.74z"/><path style="fill:none;stroke:#fff;stroke-linecap:round;stroke-linejoin:round;stroke-miterlimit:10" d="M388.86 224.827c-1.97-6.593.817-14.401 3.829-20.079 1.183-2.231 2.629-4.677 5.071-5.317a42.142 42.142 0 0 0-16.604.43c1.044-7.232 5.083-13.984 10.962-18.324-5.436-.927-11.118-1.257-16.383.38-5.266 1.637-10.068 5.536-11.613 10.83a23.977 23.977 0 0 1 3.065-14.311c-5.234 1.572-10.477 3.78-14.229 7.753-3.932 4.163-5.843 9.91-6.373 15.612-.53 5.702.205 11.437.94 17.116a11.384 11.384 0 0 1-5.443-5.424c.502 1.068-.106 3.931-.035 5.19.097 1.728.303 3.451.612 5.154a42.683 42.683 0 0 0 3.175 10.111c.063.138.136.275.201.413-1.523-.411-2.938-1.223-4.019-2.372a20.213 20.213 0 0 0 7.234 11.256 21.805 21.805 0 0 1-6.969 2.539c2.485 2.404 5.545 4.199 8.839 5.243.615.195 1.375.769 2.148.976"/><path style="fill:#191515" d="M380.27 261.63c1.01-.33 2.16-.79 3.33-1.28l-.04.18s-1.25.561-3.29 1.1zM389.31 229.12c-4.31-.4-8.71.16-12.8 1.61 1.93-3.96 4.1-6.86 6.4-7.24.04-.01.08-.01.12-.01l.58.89 5.7 4.75z"/><path style="fill:#fff" d="M416.757 312.826c-1.009 1.115-2.458 1.904-4.066 2.128l-.009.001a.504.504 0 1 1-.026-1.001c1.382.12 2.871-.263 4.101-1.128zM415.913 304.328c-2.148 1.009-4.942.736-6.961-.864l-.004-.003a.502.502 0 1 1 .677-.737c1.488 1.584 4.019 2.303 6.288 1.604zM429.406 293.343c-.566-.938-1.195-1.813-1.707-2.806a2.907 2.907 0 0 1-.28-1.676c.074-.573.275-1.106.476-1.616.405-1.023.868-2.009 1.136-3.022.268-1.003.336-2.061.011-2.959a.5.5 0 1 1 .941-.341l.014.044c.325 1.203.121 2.412-.249 3.477-.377 1.074-.924 2.032-1.395 3.002-.486.952-.866 1.988-.423 2.993.413.983.987 1.936 1.476 2.904zM395.987 262.171c-1.996-3.931-3.99-7.089-8.988-5.942-1.315.218-2.723.527-4.204.216-.636-.136-.438-1.112.206-.979 1.194.349 2.536.18 3.898.034 5.208-.849 7.263 2.45 9.088 6.671zM400.186 312.799c-.676.61-1.677.801-2.607.698-.941-.102-1.824-.463-2.652-.795a.503.503 0 1 1 .457-.889c.751.48 1.476.946 2.292 1.194.8.241 1.734.261 2.51-.208zM402.463 304.442c-1.767.241-3.736-.581-4.851-2.223l-.006-.009a.503.503 0 1 1 .879-.478c.618 1.459 2.196 2.619 3.978 2.71zM385.04 297.208c-1.412-.739-2.595-2.031-3.217-3.632l-.003-.008a.503.503 0 1 1 .966-.261c.232 1.453 1.026 2.884 2.254 3.901zM394.579 292.169c-1.159-.082-2.203-.849-2.9-1.802-.707-.965-1.115-2.1-1.503-3.169a.5.5 0 1 1 .962-.271c.228 1.114.45 2.202.964 3.174.505.949 1.347 1.814 2.477 2.068zM379.843 261.716c-3.654 1.16-7.583 1.522-11.399.935-3.841-.554-7.395-2.485-10.276-5.047-2.91-2.571-5.302-5.616-7.472-8.83-.521-.829-.974-1.741-1.211-2.734-.236-.99-.263-1.997-.229-2.972a37.22 37.22 0 0 1 .691-5.783.5.5 0 1 1 .981.195l-.002.011a36.437 36.437 0 0 0-.795 5.617c-.054.937-.044 1.867.147 2.751.19.881.579 1.722 1.06 2.524 2.046 3.178 4.37 6.274 7.165 8.848 2.78 2.578 6.204 4.542 9.985 5.173 3.757.662 7.678.392 11.355-.688zM391.96 227.784a14.938 14.938 0 0 0-4.133-3.005 11.445 11.445 0 0 0-2.396-.867c-.823-.217-1.675-.268-2.518-.274a.155.155 0 0 1-.128-.07l-3.866-5.996.109.096a26.22 26.22 0 0 0-4.056-1.292 23.79 23.79 0 0 0-4.201-.609c-1.409-.069-2.821.018-4.18.315-1.357.304-2.649.837-3.779 1.61a.5.5 0 1 1-.571-.821l.015-.01c1.271-.819 2.698-1.355 4.157-1.637 1.461-.276 2.945-.322 4.405-.209 1.461.115 2.9.379 4.306.749 1.407.377 2.778.84 4.115 1.443a.248.248 0 0 1 .11.097l3.687 6.108-.128-.07c.87.031 1.743.11 2.577.355.834.233 1.649.54 2.408.951a14.977 14.977 0 0 1 4.067 3.136zM407.052 307.16l-1.192-4.793c-.366-1.601-.897-3.173-.971-4.88-.058-1.712.497-3.396 1.311-4.866.814-1.483 1.851-2.806 2.882-4.093a.5.5 0 0 1 .781.625l-.017.02c-1.088 1.225-2.155 2.456-2.997 3.824-.843 1.358-1.431 2.887-1.46 4.485-.017 1.599.428 3.215.715 4.831l.948 4.847zM392.912 298.06l1.665-3.861c.571-1.284 1.071-2.58 1.715-3.857.33-.632.722-1.252 1.231-1.791.51-.547 1.128-.958 1.72-1.337l3.545-2.263a.5.5 0 1 1 .513.858l-3.671 2.047c-.607.339-1.187.681-1.664 1.136-.483.454-.884 1.006-1.237 1.594-.691 1.188-1.282 2.477-1.924 3.718l-1.893 3.756zM424.594 274.26a30.745 30.745 0 0 0-6.497-1.004 31.34 31.34 0 0 0-3.273.028c-1.087.059-2.276.158-3.46-.288a.5.5 0 1 1 .392-.92c.872.418 1.956.444 3.054.459 1.112.015 2.227.092 3.33.223 2.206.27 4.373.776 6.454 1.502zM417.006 328.379a7.515 7.515 0 0 0 2.795-2.897c.329-.577.492-1.251.724-1.875.205-.648.377-1.299.412-1.916a.501.501 0 1 1 .992.122c-.14.753-.415 1.42-.702 2.056-.326.634-.573 1.294-1.002 1.876a7.758 7.758 0 0 1-3.219 2.634zM394.371 319.815c1.407.591 3.002.744 4.405.313.7-.222 1.327-.58 1.85-1.078.531-.491.982-1.08 1.446-1.687a.5.5 0 1 1 .76.65c-.529.554-1.078 1.133-1.73 1.617a5.37 5.37 0 0 1-2.206.983c-1.582.299-3.19-.06-4.525-.798z"/><g><path style="fill:#fff" d="M378.137 303.096c.652.292 1.305.684 1.953.766.645.077 1.277-.151 1.948-.394a.503.503 0 1 1 .229.974c-.711.082-1.536.187-2.301-.095-.751-.295-1.253-.818-1.829-1.251z"/></g><g><path style="fill:#fff" d="M430.061 294.687c.603-.694 1.373-1.309 2.34-1.569.955-.248 2.11-.107 2.953.688l.016.015a.503.503 0 1 1-.76.653c-.41-.594-1.277-.933-2.121-.863-.863.065-1.712.497-2.428 1.076z"/></g></g><g><path style="fill:#191515" d="M145.216 118.535a50.038 50.038 0 0 1 8.242-13.622c3.489-4.147 7.605-7.598 12.461-10.651 9.689-6.163 21.826-10.331 33.62-16.621 11.853-6.298 22.617-14.988 30.511-25.904 1.976-2.703 3.729-5.665 5.269-8.416 1.558-2.753 3.043-5.362 4.818-7.596 3.502-4.442 8.641-7.781 14.357-9.17l.018-.004a2.08 2.08 0 0 0-.769-4.084c-6.763.909-13.267 4.129-18.2 9.163-2.455 2.503-4.403 5.26-6.255 7.845-1.846 2.608-3.593 4.948-5.609 7.177-8.004 8.908-18.271 15.551-29.338 20.011-5.562 2.273-11.477 4.136-17.56 6.163-6.087 2.031-12.387 4.231-18.66 7.303-6.256 3.041-12.494 7.163-17.749 12.223a69.23 69.23 0 0 0-13.333 17.518l-.069.129c-2.629 4.911-.778 11.024 4.133 13.653 4.911 2.629 11.024.778 13.653-4.133.171-.32.326-.655.46-.984z"/><defs><path id="e" d="M145.216 118.535a50.038 50.038 0 0 1 8.242-13.622c3.489-4.147 7.605-7.598 12.461-10.651 9.689-6.163 21.826-10.331 33.62-16.621 11.853-6.298 22.617-14.988 30.511-25.904 1.976-2.703 3.729-5.665 5.269-8.416 1.558-2.753 3.043-5.362 4.818-7.596 3.502-4.442 8.641-7.781 14.357-9.17l.018-.004a2.08 2.08 0 0 0-.769-4.084c-6.763.909-13.267 4.129-18.2 9.163-2.455 2.503-4.403 5.26-6.255 7.845-1.846 2.608-3.593 4.948-5.609 7.177-8.004 8.908-18.271 15.551-29.338 20.011-5.562 2.273-11.477 4.136-17.56 6.163-6.087 2.031-12.387 4.231-18.66 7.303-6.256 3.041-12.494 7.163-17.749 12.223a69.23 69.23 0 0 0-13.333 17.518l-.069.129c-2.629 4.911-.778 11.024 4.133 13.653 4.911 2.629 11.024.778 13.653-4.133.171-.32.326-.655.46-.984z"/></defs><clipPath id="f"><use xlink:href="#e" style="overflow:visible"/></clipPath><g style="clip-path:url(#f)"><path style="fill:#fff" d="M245.187 21.967c-.172 1.647.072 3.342.524 4.986.451 1.649 1.099 3.256 1.758 4.862a.225.225 0 0 1-.124.295.227.227 0 0 1-.29-.112c-.751-1.567-1.501-3.149-2.067-4.825-.564-1.67-.94-3.456-.858-5.283a.531.531 0 0 1 1.06.042l-.003.035zM236.592 27.732c-.353.932-.347 2.011-.18 3.075a20.1 20.1 0 0 0 .813 3.191 21.76 21.76 0 0 0 3.062 5.871.227.227 0 0 1-.359.277 22.377 22.377 0 0 1-3.414-5.888 21.005 21.005 0 0 1-.997-3.292c-.228-1.133-.317-2.378.073-3.584a.53.53 0 1 1 1.002.35zM227.596 37.961c-.089 4.341 1.834 8.749 5.169 11.673a.225.225 0 0 1 .021.319.229.229 0 0 1-.312.028c-3.57-2.86-5.819-7.35-5.938-12.016a.53.53 0 1 1 1.06-.028v.024zM218.012 47.524c-.03 1.208.276 2.433.745 3.6.476 1.167 1.093 2.304 1.771 3.39a26.106 26.106 0 0 0 5.001 5.842.225.225 0 0 1 .023.319.227.227 0 0 1-.313.028 26.754 26.754 0 0 1-5.344-5.776c-.741-1.093-1.418-2.226-1.974-3.449-.546-1.22-.948-2.557-.969-3.96a.53.53 0 1 1 1.06-.016v.022zM205.048 59.164c.324 2.449 1.427 4.788 2.952 6.787 1.532 2.01 3.479 3.698 5.57 5.166a.226.226 0 0 1-.253.375c-2.172-1.401-4.233-3.043-5.91-5.071-1.668-2.02-2.947-4.441-3.407-7.097a.53.53 0 0 1 1.044-.182l.004.022zM193.473 65.072c.003 5.28 2.494 10.572 6.656 13.972a.226.226 0 0 1-.28.355c-4.397-3.331-7.218-8.7-7.436-14.307a.53.53 0 1 1 1.059-.041l.001.021zM180.546 69.331c-.734 6.3 1.828 12.966 6.698 17.192a.226.226 0 0 1-.291.346c-5.118-4.175-8.023-10.957-7.461-17.644a.53.53 0 0 1 1.056.088l-.002.018zM165.398 73.867c-.476 1.794-.413 3.725-.138 5.618.283 1.9.752 3.777 1.409 5.589a29.103 29.103 0 0 0 5.989 9.84.226.226 0 0 1-.328.313 29.678 29.678 0 0 1-7.967-15.6c-.333-1.95-.469-4.005.007-6.018a.53.53 0 0 1 1.032.244l-.004.014zM154.515 79.282c-.052 7 3.352 14.012 8.987 18.331a.226.226 0 0 1-.27.363c-5.873-4.248-9.618-11.34-9.777-18.687a.53.53 0 1 1 1.059-.023l.001.016z"/></g><path style="clip-path:url(#f);fill:none;stroke:#fff;stroke-linecap:round;stroke-linejoin:round;stroke-miterlimit:10" d="M141.737 86.223c1.583 8.394 6.601 16.088 13.644 20.922M129.739 93.534c.552 4.959 3.001 9.553 6.162 13.414 3.161 3.86 7.025 7.074 10.864 10.261"/><path style="fill:#fff" d="M144.707 119.436c.355-.732.657-1.487.972-2.238a50.348 50.348 0 0 1 3.367-6.499 50.833 50.833 0 0 1 5.893-7.785c2.207-2.404 4.672-4.567 7.295-6.509 2.631-1.935 5.415-3.648 8.269-5.228 5.726-3.135 11.715-5.717 17.615-8.448 5.899-2.726 11.758-5.563 17.238-9.026 10.937-6.902 20.659-15.969 27.374-27.047 1.684-2.761 3.159-5.666 4.932-8.436 1.739-2.786 3.944-5.354 6.576-7.372a27.208 27.208 0 0 1 8.796-4.526c.396-.124.8-.219 1.199-.33.356-.081.598-.21.826-.43a1.56 1.56 0 0 0 .359-1.686 1.566 1.566 0 0 0-1.416-.981c-.14-.01-.304.021-.518.055l-.592.093c-.396.054-.786.145-1.178.221-6.265 1.288-12.111 4.571-16.465 9.273-2.197 2.343-4.067 4.991-5.96 7.637-1.893 2.652-3.891 5.274-6.161 7.642-8.956 9.618-20.583 16.435-32.871 20.76-6.134 2.225-12.373 4.083-18.509 6.222-6.131 2.132-12.182 4.557-17.837 7.737-11.362 6.273-20.81 15.927-26.991 27.381 6.026-11.533 15.374-21.362 26.734-27.832 5.67-3.255 11.737-5.73 17.872-7.917 6.138-2.19 12.365-4.096 18.45-6.355 6.086-2.251 11.991-4.968 17.48-8.405 5.493-3.416 10.568-7.514 14.967-12.248 2.23-2.339 4.181-4.912 6.06-7.558 1.884-2.646 3.771-5.338 6.024-7.754 4.482-4.862 10.51-8.275 16.992-9.619.406-.078.81-.17 1.221-.225l.614-.095.311-.047a2.617 2.617 0 0 1 2.745 1.633 2.61 2.61 0 0 1-.606 2.814c-.349.356-.866.601-1.303.692-.384.106-.773.196-1.154.314a26.178 26.178 0 0 0-8.474 4.334c-2.542 1.944-4.649 4.379-6.363 7.105-1.744 2.709-3.228 5.612-4.939 8.403-6.846 11.202-16.669 20.381-27.768 27.236-5.555 3.453-11.463 6.258-17.391 8.944-5.929 2.688-11.921 5.229-17.645 8.294-2.858 1.533-5.65 3.201-8.287 5.088-2.631 1.894-5.108 4.01-7.334 6.372a50.72 50.72 0 0 0-5.972 7.677 50.105 50.105 0 0 0-3.447 6.444c-.323.745-.635 1.497-1 2.225z"/><path style="fill:#191515" d="M202.158 57.766c.869-3.233 2.397-6.26 3.241-9.499.844-3.239.917-6.917-.954-9.692-.37-.548-.93-1.1-1.585-1.007-.662.094-1.039.781-1.353 1.37-3.024 5.671-9.157 8.926-13.262 13.871-4.452 5.364-6.266 12.383-7.796 19.184-.029.131-.056.279.019.39.069.104.202.14.324.167 5.316 1.191 10.985.295 15.932-1.987 2.289-1.056 4.52-2.475 5.85-4.616"/><path style="fill:#fff" d="M198.382 43.698c.465 1.39 1.393 2.628 2.535 3.617.573.49 1.197.95 1.858 1.295.658.34 1.398.555 2.105.399a.195.195 0 0 1 .095.378c-.827.231-1.691.021-2.423-.307-.742-.337-1.407-.774-2.046-1.261-1.264-.979-2.359-2.258-2.977-3.805a.456.456 0 0 1 .845-.341c.001.007.005.017.008.025zM193.815 47.662a9.025 9.025 0 0 0 3.431 4.929 9.156 9.156 0 0 0 5.861 1.667.195.195 0 0 1 .033.387 9.669 9.669 0 0 1-6.26-1.518 9.795 9.795 0 0 1-3.938-5.208.455.455 0 1 1 .868-.276l.005.019zM188.283 53.234c.649 1.108 1.494 2.118 2.519 2.919a10.93 10.93 0 0 0 3.422 1.853c1.241.411 2.562.587 3.872.512 1.316-.083 2.62-.404 3.925-.729a.195.195 0 0 1 .1.376c-1.294.366-2.609.739-3.984.87a11.03 11.03 0 0 1-4.106-.409 11.65 11.65 0 0 1-3.706-1.856c-1.126-.824-2.078-1.883-2.827-3.074a.455.455 0 1 1 .771-.485l.006.01.008.013zM184.732 59.781c.753 1.335 2.011 2.357 3.42 3.076 1.414.72 2.976 1.192 4.554 1.5 1.582.302 3.192.38 4.789.05l1.202-.173 1.2-.248 2.402-.495.006-.001a.195.195 0 0 1 .084.38l-2.397.561-1.199.281-1.225.21c-1.614.379-3.337.348-4.975.076-1.641-.276-3.26-.715-4.789-1.441-1.516-.724-2.95-1.802-3.86-3.316a.456.456 0 0 1 .781-.469l.007.009zM182.214 67.095c.961.93 2.231 1.483 3.572 1.895 1.351.428 2.709.817 4.091 1.053 2.761.512 5.614.119 8.335-.647a.195.195 0 0 1 .24.134.196.196 0 0 1-.13.239c-1.368.425-2.771.767-4.206.946a16.037 16.037 0 0 1-4.338-.032c-1.436-.201-2.838-.558-4.214-.948-1.381-.377-2.829-.936-3.966-1.969l-.006-.006a.455.455 0 1 1 .622-.665z"/><path style="fill:none;stroke:#fff;stroke-width:.9105;stroke-miterlimit:10" d="M180.468 72.383c-.132-.023-.048-.259-.018-.39 1.529-6.8 3.344-13.82 7.796-19.184 4.104-4.945 10.238-8.2 13.262-13.871.314-.59.691-1.276 1.353-1.37.654-.093 1.215.459 1.585 1.007 1.871 2.776 1.799 6.453.954 9.692-.844 3.239-2.373 6.267-3.241 9.499l.416 8.181c-.001 0-6.173 9.251-22.107 6.436z"/><path style="fill:#191515" d="M223.098 62.863c1.95.457 3.978.507 5.924.979 1.946.471 3.905 1.473 4.838 3.245.184.35.317.801.083 1.12-.237.322-.705.327-1.105.326-3.844-.01-7.295 2.302-11.063 3.066-4.086.829-8.3-.2-12.316-1.318-.077-.021-.163-.049-.2-.12-.035-.066-.017-.146.004-.218.876-3.139 2.952-5.873 5.554-7.835 1.204-.908 2.583-1.682 4.088-1.778"/><path style="fill:#fff" d="M229.037 69.194c-.64-.763-1.005-1.702-1.163-2.645a6.371 6.371 0 0 1-.086-1.435c.034-.478.168-.994.523-1.364a.117.117 0 0 1 .173.157c-.282.328-.378.779-.385 1.222a6.07 6.07 0 0 0 .157 1.345c.199.881.588 1.721 1.189 2.359a.272.272 0 1 1-.397.373l-.011-.012zM225.682 70.506a5.86 5.86 0 0 1-1.631-3.549 5.782 5.782 0 0 1 .971-3.729.116.116 0 0 1 .195.127 5.469 5.469 0 0 0-.779 3.56 5.398 5.398 0 0 0 1.627 3.203.273.273 0 0 1-.374.396l-.009-.008zM221.097 71.74c-.845-1.462-1.095-3.217-.751-4.838a6.58 6.58 0 0 1 .946-2.28c.458-.687 1.027-1.275 1.586-1.854a.118.118 0 0 1 .165-.003.117.117 0 0 1 .005.162c-.54.596-1.079 1.193-1.494 1.863a6.24 6.24 0 0 0-.825 2.186c-.277 1.54.021 3.175.835 4.482a.272.272 0 1 1-.459.292c-.004-.002-.007-.008-.008-.01zM216.643 71.763c-.541-.908-.703-1.969-.656-2.972.05-1.011.277-1.989.595-2.932.32-.94.791-1.857 1.447-2.601.59-.804 1.282-1.492 1.918-2.243a.116.116 0 0 1 .18.147l-.005.007c-.61.761-1.293 1.479-1.842 2.273-.626.748-1.04 1.619-1.328 2.538-.284.919-.477 1.876-.498 2.825-.02.946.163 1.898.654 2.673a.273.273 0 1 1-.465.285zM212.012 70.871c-.223-.892-.108-1.813.084-2.647.184-.836.392-1.676.692-2.49.583-1.65 1.678-3.053 2.898-4.245a.117.117 0 0 1 .165.001.117.117 0 0 1 .001.162c-1.174 1.217-2.188 2.61-2.699 4.21-.267.795-.446 1.62-.602 2.454-.163.823-.23 1.649-.012 2.418a.272.272 0 1 1-.524.148l-.003-.011z"/><path style="fill:none;stroke:#fff;stroke-width:.5446;stroke-miterlimit:10" d="M209.259 70.16c-.029.075.123.098.2.12 4.017 1.118 8.23 2.147 12.316 1.318 3.768-.764 7.218-3.076 11.062-3.066.4.001.868-.003 1.105-.326.234-.319.102-.77-.083-1.12-.934-1.771-2.892-2.773-4.838-3.245-1.946-.471-3.974-.522-5.924-.979l-4.194-2.534c.001.001-5.89.251-9.644 9.832z"/><path style="fill:#191515" d="M123.8 117.444c-.637-.149-1.117-3.382-1.191-3.851-.527-3.314.077-6.703 1.514-9.72 1.873-3.93 5.465-7.615 8.599-10.612a43.871 43.871 0 0 1 12.524-8.403c2.184-.967 4.465-1.759 6.833-2.076 3.81-.511 7.66.22 11.464.773 3.848.559 7.722.937 11.606 1.132-1.043 1.619-3.009 2.316-4.647 3.329a12.152 12.152 0 0 0-4.718 5.448c-.74 1.7-1.077 3.541-1.476 5.351-.719 3.261-1.68 6.49-3.095 9.521-1.488 3.187-3.949 5.413-5.703 8.327-3.576 5.941-7.964 10.692-14.27 13.894-.001.001-12.604-11.986-17.44-13.113z"/><path style="fill:#fff" d="M174.784 84.962c-5.342 1.33-10.852.773-16.189 1.306-2.673.264-5.302.833-7.749 1.927-2.44 1.078-4.818 2.416-7.081 3.831-2.239 1.455-4.329 3.172-5.912 5.294-1.611 2.103-2.566 4.615-3.144 7.217-.601 2.611-.763 5.261-.942 7.992-.187 2.761-1.123 5.532-2.751 7.815a.53.53 0 1 1-.866-.61l.004-.006c1.534-2.12 2.428-4.654 2.634-7.29.2-2.662.393-5.437 1.037-8.105.614-2.663 1.649-5.321 3.365-7.516 1.684-2.211 3.866-3.962 6.167-5.428 2.336-1.43 4.702-2.733 7.223-3.821 2.516-1.099 5.248-1.662 7.958-1.903 5.423-.485 10.888.116 16.138-1.144a.226.226 0 0 1 .273.166.228.228 0 0 1-.165.275z"/><path style="fill:none;stroke:#fff;stroke-width:.5446;stroke-miterlimit:10" d="M123.8 117.444c-.637-.149-1.117-3.382-1.191-3.851-.527-3.314.077-6.703 1.514-9.72 1.873-3.93 5.465-7.615 8.599-10.612a43.871 43.871 0 0 1 12.524-8.403c2.184-.967 4.465-1.759 6.833-2.076 3.81-.511 7.66.22 11.464.773 3.848.559 7.722.937 11.606 1.132-1.043 1.619-3.009 2.316-4.647 3.329a12.152 12.152 0 0 0-4.718 5.448c-.74 1.7-1.077 3.541-1.476 5.351-.719 3.261-1.68 6.49-3.095 9.521-1.488 3.187-3.949 5.413-5.703 8.327-3.576 5.941-7.964 10.692-14.27 13.894"/><path style="fill:#191515" d="M165.631 130.608a50.041 50.041 0 0 1 8.243-13.622c3.489-4.147 7.605-7.597 12.461-10.651 9.689-6.163 21.826-10.331 33.62-16.621 11.853-6.298 22.617-14.988 30.511-25.904 1.976-2.703 3.729-5.665 5.269-8.416 1.558-2.753 3.042-5.362 4.818-7.596 3.502-4.442 8.641-7.78 14.357-9.17l.017-.004a2.08 2.08 0 0 0 1.53-2.513 2.09 2.09 0 0 0-2.299-1.571c-6.763.909-13.267 4.129-18.2 9.163-2.455 2.503-4.403 5.26-6.255 7.845-1.846 2.607-3.593 4.948-5.609 7.177-8.004 8.908-18.271 15.551-29.338 20.011-5.562 2.273-11.477 4.135-17.56 6.163-6.087 2.031-12.387 4.231-18.66 7.303-6.256 3.041-12.494 7.163-17.749 12.223a69.23 69.23 0 0 0-13.333 17.518l-.069.129c-2.629 4.911-.778 11.024 4.133 13.653 4.911 2.629 11.024.778 13.653-4.133.171-.32.326-.655.46-.984z"/><defs><path id="g" d="M165.631 130.608a50.041 50.041 0 0 1 8.243-13.622c3.489-4.147 7.605-7.597 12.461-10.651 9.689-6.163 21.826-10.331 33.62-16.621 11.853-6.298 22.617-14.988 30.511-25.904 1.976-2.703 3.729-5.665 5.269-8.416 1.558-2.753 3.042-5.362 4.818-7.596 3.502-4.442 8.641-7.78 14.357-9.17l.017-.004a2.08 2.08 0 0 0 1.53-2.513 2.09 2.09 0 0 0-2.299-1.571c-6.763.909-13.267 4.129-18.2 9.163-2.455 2.503-4.403 5.26-6.255 7.845-1.846 2.607-3.593 4.948-5.609 7.177-8.004 8.908-18.271 15.551-29.338 20.011-5.562 2.273-11.477 4.135-17.56 6.163-6.087 2.031-12.387 4.231-18.66 7.303-6.256 3.041-12.494 7.163-17.749 12.223a69.23 69.23 0 0 0-13.333 17.518l-.069.129c-2.629 4.911-.778 11.024 4.133 13.653 4.911 2.629 11.024.778 13.653-4.133.171-.32.326-.655.46-.984z"/></defs><clipPath id="h"><use xlink:href="#g" style="overflow:visible"/></clipPath><g style="clip-path:url(#h)"><path style="fill:#fff" d="M265.602 34.04c-.172 1.647.072 3.342.524 4.986.451 1.648 1.099 3.256 1.758 4.862a.227.227 0 0 1-.123.296.227.227 0 0 1-.29-.112c-.751-1.567-1.501-3.149-2.067-4.825-.564-1.67-.94-3.456-.858-5.283a.53.53 0 0 1 1.06.042l-.004.034zM257.007 39.805c-.353.932-.347 2.011-.18 3.075a20.14 20.14 0 0 0 .813 3.192 21.765 21.765 0 0 0 3.062 5.872.227.227 0 0 1-.359.277 22.377 22.377 0 0 1-3.414-5.888 20.896 20.896 0 0 1-.996-3.292c-.228-1.133-.318-2.378.073-3.584a.53.53 0 1 1 1.001.348zM248.01 50.034c-.089 4.341 1.834 8.749 5.169 11.673a.225.225 0 0 1 .021.319.229.229 0 0 1-.312.028c-3.57-2.86-5.819-7.35-5.938-12.016a.53.53 0 1 1 1.06-.028v.024zM238.426 59.597c-.03 1.208.276 2.432.745 3.6.476 1.167 1.094 2.304 1.771 3.39a26.128 26.128 0 0 0 5.001 5.842.226.226 0 0 1-.29.347A26.731 26.731 0 0 1 240.309 67c-.741-1.093-1.418-2.227-1.974-3.449-.546-1.22-.948-2.557-.97-3.96a.53.53 0 1 1 1.06-.016.17.17 0 0 1 .001.022zM225.463 71.237c.324 2.449 1.427 4.788 2.952 6.787 1.531 2.01 3.479 3.698 5.57 5.166a.226.226 0 0 1-.253.375c-2.172-1.401-4.233-3.043-5.91-5.071-1.668-2.02-2.947-4.441-3.407-7.097a.53.53 0 0 1 1.044-.182l.004.022zM213.888 77.145c.003 5.28 2.494 10.572 6.656 13.972a.226.226 0 0 1-.28.355c-4.397-3.331-7.218-8.7-7.436-14.307a.53.53 0 0 1 1.06-.042v.022zM200.961 81.404c-.734 6.3 1.828 12.966 6.698 17.192a.226.226 0 0 1-.291.346c-5.118-4.175-8.023-10.957-7.461-17.644a.53.53 0 1 1 1.054.106zM185.812 85.94c-.476 1.794-.413 3.725-.138 5.618a28.88 28.88 0 0 0 1.409 5.589 29.093 29.093 0 0 0 5.989 9.84.226.226 0 0 1-.328.313 29.693 29.693 0 0 1-7.968-15.6c-.333-1.95-.469-4.005.007-6.018a.53.53 0 0 1 1.032.244l-.003.014zM174.93 91.355c-.052 7 3.352 14.011 8.987 18.331a.226.226 0 0 1-.27.363c-5.873-4.248-9.618-11.34-9.777-18.687a.53.53 0 1 1 1.059-.023l.001.016z"/></g><path style="fill:#fff" d="M165.122 131.509c.355-.733.657-1.487.972-2.238a50.08 50.08 0 0 1 3.368-6.499 50.833 50.833 0 0 1 5.893-7.785c2.207-2.404 4.672-4.567 7.295-6.508 2.631-1.935 5.415-3.648 8.269-5.228 5.726-3.135 11.715-5.717 17.615-8.448 5.899-2.726 11.758-5.563 17.238-9.026 10.937-6.902 20.658-15.969 27.374-27.047 1.684-2.76 3.159-5.666 4.932-8.436 1.739-2.786 3.944-5.354 6.576-7.372a27.208 27.208 0 0 1 8.796-4.526c.396-.124.8-.219 1.199-.33.356-.081.598-.21.826-.43a1.562 1.562 0 0 0 .36-1.686 1.566 1.566 0 0 0-1.416-.981c-.14-.01-.304.021-.518.055l-.592.093c-.396.054-.786.145-1.178.221-6.265 1.288-12.111 4.571-16.465 9.273-2.197 2.343-4.067 4.991-5.96 7.637-1.893 2.652-3.891 5.274-6.16 7.642-8.955 9.618-20.583 16.435-32.871 20.76-6.134 2.225-12.373 4.083-18.509 6.222-6.131 2.132-12.182 4.557-17.837 7.736-11.363 6.273-20.81 15.927-26.991 27.381 6.026-11.533 15.374-21.362 26.734-27.832 5.67-3.255 11.737-5.73 17.872-7.917 6.138-2.19 12.365-4.096 18.45-6.355 6.086-2.252 11.991-4.968 17.48-8.405 5.494-3.416 10.568-7.514 14.967-12.248 2.23-2.339 4.181-4.912 6.06-7.558 1.884-2.646 3.771-5.338 6.024-7.754 4.482-4.862 10.51-8.275 16.992-9.619.406-.078.81-.17 1.221-.225l.614-.095.311-.047a2.617 2.617 0 0 1 2.745 1.633 2.61 2.61 0 0 1-.606 2.814c-.349.356-.866.601-1.303.692-.384.106-.773.195-1.154.314a26.178 26.178 0 0 0-8.474 4.334c-2.542 1.944-4.65 4.379-6.363 7.105-1.744 2.709-3.228 5.612-4.939 8.403-6.846 11.202-16.669 20.382-27.768 27.236-5.555 3.453-11.463 6.258-17.39 8.944-5.929 2.688-11.922 5.229-17.646 8.294-2.858 1.533-5.65 3.201-8.287 5.088-2.631 1.894-5.108 4.01-7.334 6.372a50.68 50.68 0 0 0-5.972 7.678 50.105 50.105 0 0 0-3.447 6.444c-.326.744-.639 1.496-1.003 2.224z"/><path style="fill:#191515" d="M222.573 69.839c.869-3.233 2.397-6.26 3.241-9.499.844-3.239.916-6.917-.955-9.692-.369-.548-.93-1.1-1.585-1.007-.662.094-1.039.781-1.353 1.37-3.024 5.671-9.157 8.926-13.262 13.871-4.451 5.364-6.266 12.383-7.796 19.184-.029.131-.056.279.019.39.069.104.202.14.324.167 5.316 1.191 10.985.295 15.932-1.987 2.289-1.056 4.52-2.475 5.85-4.616"/><path style="fill:#fff" d="M218.796 55.771c.465 1.39 1.393 2.628 2.535 3.617.573.49 1.197.95 1.858 1.295.658.34 1.398.555 2.105.399a.195.195 0 0 1 .095.378c-.827.231-1.692.021-2.423-.307-.742-.337-1.407-.774-2.046-1.261-1.264-.979-2.359-2.258-2.977-3.805a.455.455 0 1 1 .845-.341l.008.025zM214.23 59.735a9.025 9.025 0 0 0 3.431 4.929 9.156 9.156 0 0 0 5.861 1.667.195.195 0 0 1 .033.387 9.669 9.669 0 0 1-6.26-1.518 9.795 9.795 0 0 1-3.938-5.208.455.455 0 1 1 .873-.257zM208.698 65.307c.649 1.108 1.494 2.118 2.519 2.919a10.952 10.952 0 0 0 3.422 1.854c1.241.411 2.562.587 3.872.512 1.316-.083 2.62-.404 3.925-.729a.195.195 0 0 1 .1.376c-1.294.366-2.609.739-3.984.87a11.03 11.03 0 0 1-4.106-.409 11.665 11.665 0 0 1-3.707-1.856c-1.126-.824-2.078-1.883-2.827-3.075a.455.455 0 1 1 .771-.485l.006.01.009.013zM205.147 71.854c.753 1.335 2.011 2.357 3.42 3.076 1.414.72 2.977 1.191 4.554 1.5 1.582.302 3.192.38 4.789.05l1.202-.173 1.201-.248 2.402-.495.006-.001a.195.195 0 0 1 .084.38l-2.396.561-1.199.281-1.225.21c-1.614.379-3.337.348-4.975.076-1.641-.277-3.26-.715-4.789-1.441-1.516-.724-2.95-1.802-3.86-3.316a.456.456 0 1 1 .786-.46zM202.629 79.168c.961.93 2.231 1.483 3.572 1.895 1.351.428 2.708.817 4.09 1.052 2.761.512 5.614.119 8.335-.647a.195.195 0 0 1 .24.134.196.196 0 0 1-.13.239c-1.368.425-2.771.767-4.205.946a16.037 16.037 0 0 1-4.338-.033c-1.436-.201-2.838-.558-4.215-.948-1.381-.377-2.829-.936-3.966-1.969l-.006-.005a.455.455 0 0 1 .612-.674l.011.01z"/><path style="fill:none;stroke:#fff;stroke-width:.9105;stroke-miterlimit:10" d="M200.883 84.456c-.132-.023-.048-.259-.018-.39 1.529-6.8 3.344-13.82 7.796-19.184 4.104-4.945 10.238-8.2 13.262-13.871.314-.59.691-1.276 1.353-1.37.654-.093 1.215.459 1.585 1.007 1.871 2.776 1.799 6.453.954 9.692-.844 3.239-2.373 6.267-3.241 9.499l.416 8.181c-.001.001-6.173 9.251-22.107 6.436z"/><path style="fill:#191515" d="M243.513 74.936c1.95.457 3.978.507 5.924.979 1.946.471 3.905 1.473 4.838 3.245.184.35.317.801.083 1.12-.237.322-.705.327-1.105.325-3.844-.01-7.295 2.302-11.063 3.066-4.086.829-8.299-.2-12.316-1.318-.077-.021-.163-.049-.2-.12-.035-.066-.016-.146.004-.218.876-3.139 2.952-5.873 5.554-7.835 1.204-.908 2.583-1.682 4.088-1.778"/><path style="fill:#fff" d="M249.452 81.267c-.641-.763-1.005-1.702-1.163-2.645a6.371 6.371 0 0 1-.086-1.435c.034-.478.168-.994.524-1.364a.116.116 0 0 1 .172.157c-.282.329-.378.779-.385 1.222a6.07 6.07 0 0 0 .157 1.345c.199.881.588 1.721 1.189 2.359a.272.272 0 1 1-.408.361zM246.096 82.579a5.86 5.86 0 0 1-1.631-3.549 5.782 5.782 0 0 1 .971-3.729.116.116 0 0 1 .195.127 5.47 5.47 0 0 0-.779 3.561 5.398 5.398 0 0 0 1.627 3.203.273.273 0 0 1-.374.396l-.009-.009zM241.511 83.813c-.845-1.462-1.095-3.217-.751-4.838a6.58 6.58 0 0 1 .946-2.28c.458-.687 1.027-1.275 1.586-1.854a.116.116 0 0 1 .164-.003.117.117 0 0 1 .005.162c-.54.596-1.079 1.193-1.494 1.863a6.24 6.24 0 0 0-.825 2.186c-.277 1.54.021 3.175.835 4.482a.272.272 0 1 1-.466.282zM237.058 83.836c-.541-.908-.703-1.969-.656-2.972.05-1.011.277-1.989.595-2.932.32-.94.791-1.857 1.447-2.601.59-.804 1.282-1.492 1.918-2.243a.116.116 0 0 1 .18.147l-.005.007c-.61.761-1.293 1.479-1.842 2.273-.626.748-1.04 1.619-1.328 2.538-.284.919-.477 1.876-.498 2.825-.02.946.163 1.898.654 2.673a.273.273 0 0 1-.46.292l-.005-.007zM232.427 82.944c-.223-.891-.108-1.813.084-2.647.184-.836.392-1.676.692-2.49.583-1.65 1.678-3.053 2.898-4.245a.117.117 0 0 1 .165.001.118.118 0 0 1 .001.163c-1.173 1.217-2.188 2.61-2.699 4.21-.267.795-.446 1.62-.602 2.454-.163.823-.23 1.649-.012 2.419a.272.272 0 1 1-.527.135z"/><path style="fill:none;stroke:#fff;stroke-width:.5446;stroke-miterlimit:10" d="M229.673 82.233c-.029.075.123.099.2.12 4.017 1.118 8.23 2.147 12.316 1.318 3.768-.764 7.218-3.076 11.063-3.066.4.001.868-.003 1.105-.325.234-.319.102-.77-.083-1.12-.934-1.771-2.893-2.773-4.839-3.245-1.946-.471-3.974-.522-5.924-.979l-4.194-2.534c.002 0-5.89.25-9.644 9.831z"/><path style="fill:#191515" d="M95.49 157.301c-.06-.05-.12-.09-.18-.14-1.04.12-2.09.2-3.14.25.04.84.14 1.67.28 2.5.08.48.15 1.19.34 1.82v.01c-.24.24-.47.48-.69.72-.51-.58-1.12-1.04-1.73-1.5-.73-.56-1.46-1.11-2.19-1.66-.26-.2-.62-.41-.9-.22-.21.14-.24.43-.24.68-.03 1.27.07 2.55.29 3.8.14.79.22 2.18.85 2.83-.75.68-1.53 1.33-2.34 1.91-.04-.03-.07-.07-.1-.1-.26-.26-1.23-1.08-1.23-1.46-.93-1.32-1.55-2.93-1.38-4.54-1.05-.16-2.12.3-2.87 1.06.47.57 1 1.09 1.58 1.55-.73-.24-1.46-.49-2.19-.76-.61 1-.82 2.23-.8 3.4 0 .05 0 .09.01.14.04.07.08.13.13.2 0 .38.97 1.2 1.22 1.46s.51.51.78.76c-.62-.05-1.2-.01-1.72.17-.26-.84-.39-1.71-.41-2.59-.86-1.28-1.41-2.81-1.26-4.34-1.27-.19-2.57.53-3.31 1.58-.74 1.06-.98 2.39-.97 3.67.01.46.05.92.12 1.38-.45-.04-.837.061-1.22.32-1.624 1.097-2.41 3.19-2.51 3.3-1.11 1.25-1.33 4.02-1.48 5.61-.18 1.95-.09 3.92.15 5.86.23 1.86 1.05 3.91 1.09 5.76 0-1.54.6-3.08 1.65-4.22-.3 5.08 2.26 9.88 5.15 14.07 2.84 4.11 6.06 7.96 9.62 11.46a26.176 26.176 0 0 1-2.7-14.27c2.25 4.2 6.19 7.33 10.56 9.26 4.36 1.92 9.14 2.73 13.89 3.11-6.95-3.79-12.22-10.55-14.2-18.21 1.65.93 3.48 1.54 5.36 1.78a13.237 13.237 0 0 1-1.77-7.53c3.05 1.21 6.3 1.9 9.58 2.03a18.743 18.743 0 0 1-4.5-9.47c2.44.93 4.88 1.85 7.33 2.78-1.74-2.41-2.631-5.687-3.211-8.587l13.761-3.703s9.337.996 13.96 2.43c4.27 1.84 8.55 3.68 12.82 5.52 6.62 2.86 13.95 5.76 20.85 3.67-3.75-1.21-6.88-4.24-8.21-7.95 6.48-.54 12.88 1.3 19.3 2.32 6.42 1.01 13.47 1.06 18.86-2.59 4.55-3.08 7.25-8.4 11.87-11.4 5.18-3.37 11.79-3.26 17.96-3.03-3.44-4.14-9.53-5.1-14.85-4.22-5.31.88-10.25 3.26-15.44 4.71-5.19 1.45-11.09 1.86-15.68-.97 12.05-.55 24.91-4.36 31.93-14.15 2.49-3.46 4.12-7.5 6.89-10.73 2.77-3.23 7.29-5.57 11.26-4.03-3.69-3.52-9.66-2.77-14.48-1.11-4.83 1.66-9.81 4.02-14.8 2.95 10.05-1.9 15.15-13.17 23.67-18.83 4.62-3.06 10.34-4.41 15.84-3.74-4.56-2.77-9.62-5.29-14.94-4.96-8.09.49-15.72 7.46-23.4 4.86 3.62-.52 7.28-3.61 7.71-7.31-7.63 2.21-15.72 2.61-22.91 5.37-.44-.3-.88-.57-1.34-.83-2.09-1.16-4.39-1.89-6.72-2.42a43.825 43.825 0 0 0-15.06-.75c-4.3.53-9.39 1.33-13.24 3.37-2.95 1.55-5.46 3.91-7.02 6.88-.22.42-1.77 3.3-1.35 3.8.97 1.15 1.92 3.54 2.77 6.3-1.49-.86-3.16-1.64-5.03-2.3l2.27-10.69-14.04-1.83-4.54-4.53-8.95 7.22.11-4.07c-8.89 4.37-14.31 12.27-16.37 15.74l-.06.01-3.56 3.57-17.06 2.81s-5.12-4.96-10.39-4.49c-5.28.47-11.94 4.04-9.92 11.95l2.33 3.57-.27 4.16a90.447 90.447 0 0 1-9.82 4.98c1.79.06 3.59-.16 5.31-.66-1.59 5.42-.06 11.22 1.46 16.66.1-4.69 1.86-9.32 4.89-12.88.6 2.64 2.81 4.56 5.01 6.11a52.46 52.46 0 0 0 12.04 6.33c.05-.09.11-.18.17-.27.13-.19.28-.36.44-.52-1.72-2.06-2.71-4.75-2.68-7.45 3.47 1.6 7.42 1.74 11.24 1.7 1.11-.01 2.23-.04 3.35-.1-.02-.44-.02-.88-.01-1.31.01-.25.04-.54.24-.68.28-.19.64.02.91.22.66.5 1.33 1.01 2 1.52m42.99-5.36c-.24-.75-.63-1.44-1.01-2.13-.45-.8-.9-1.59-1.34-2.39-.17-.29-.42-.62-.74-.56-.25.04-.39.3-.5.52-.53 1.16-.95 2.37-1.25 3.61-.12.51-.37 1.26-.44 1.95-.91.03-1.83 0-2.75-.07-.03-.2-.07-.41-.13-.61-.24-.79-.64-1.51-1.04-2.23-.45-.8-.9-1.59-1.35-2.39-.16-.29-.41-.62-.74-.56-.24.04-.39.29-.49.52-.53 1.16-.95 2.37-1.26 3.61-.08.32-.2.72-.29 1.15-1-.11-2-.19-3-.22-.23-.74-.62-1.43-1-2.11-.44-.8-.89-1.59-1.34-2.39-.16-.29-.41-.62-.74-.56-.24.04-.39.29-.49.52-.11.24-.22.48-.31.72l1.17.12c-.47.18-.95.35-1.42.52-.29.74-.52 1.49-.7 2.25-.08.35-.23.8-.32 1.28-.72.12-1.44.27-2.15.44-.23-.68-.59-1.32-.94-1.95-.13-.22-.25-.44-.38-.67-1.03.27-2.08.5-3.13.7-.12.38-.23.76-.32 1.15-.14.59-.45 1.47-.45 2.24-.27.08-.53.14-.8.19-.01-.34-.12-.68-.27-.99-.34-.74-.85-1.4-1.35-2.05-1.14.16-2.29.28-3.44.36-.08.45-.14.9-.18 1.35-.04.45-.15 1.09-.15 1.71.36.01.72 0 1.08-.03-.17.08-.34.16-.51.22-.18.08-.36.16-.55.23-.3.13-.6.24-.91.35-1.07.4-2.18.71-3.3.95.45-.25.92-.48 1.41-.69.55-.23 1.11-.41 1.67-.53-.19-.23-.4-.45-.63-.64-1.6-.24-3.14-.78-4.54-1.59-.67-.39-1.3-.84-1.89-1.34.7.05 1.39.1 2.09.13 0-.02.02-.04.05-.06.21-.14.47-.06.69.08 1.89.05 3.78 0 5.67-.14.13-.81.31-1.61.55-2.4.07-.24.17-.51.41-.59.31-.11.61.19.81.45.56.73 1.11 1.44 1.67 2.17 1.07-.14 2.13-.31 3.19-.53.25-.84.57-1.66.93-2.46.11-.22.25-.48.5-.52.32-.06.57.27.74.56.32.58.64 1.15.96 1.72 1.52-.39 3.01-.84 4.49-1.35.07-.22.16-.43.25-.64-1.38-.16-2.75-.39-4.11-.69 2.19-.18 4.37-.49 6.53-.9.02.03.04.05.06.08.54.74 1.08 1.48 1.63 2.22.19.27.48.57.8.47.23-.08.35-.35.42-.58.31-.97.54-1.96.7-2.96 1.24-.29 2.48-.6 3.71-.95.24.39.52.77.79 1.15.54.73 1.08 1.47 1.62 2.21.2.27.49.57.8.47.24-.08.36-.34.43-.58.39-1.22.66-2.47.81-3.73.03-.24.08-.53.12-.84 2.3-.7 4.59-1.39 6.97-1.7 2.9-.37 5.44.34 6.91 2.62-1.6 3.34-4.53 6.009-7.98 7.33z"/><g><path style="fill:#191515" d="M81.84 164.811c-.73-.24-1.46-.49-2.19-.76.05-.09.11-.18.17-.27.13-.19.28-.36.44-.52.47.57 1 1.089 1.58 1.55zM95.31 157.161c-1.04.12-2.09.2-3.14.25-.02-.44-.02-.88-.01-1.31.01-.25.04-.54.24-.68.28-.19.64.02.91.22.66.5 1.33 1.009 2 1.52zM104.34 154.801c-.17.08-.34.16-.51.22-.19.03-.37.05-.56.08-.01-.09-.02-.18-.01-.27.36.009.72 0 1.08-.03zM107.03 151.4v.01c-1.14.16-2.29.28-3.44.36.13-.81.31-1.61.55-2.4.07-.24.17-.51.41-.59.31-.11.61.19.81.45.56.73 1.11 1.441 1.67 2.17zM113.35 150.171c-1.03.27-2.08.5-3.13.7.25-.84.57-1.66.93-2.46.11-.22.25-.48.5-.52.32-.06.57.27.74.56.32.58.64 1.149.96 1.72zM119.26 148.301c-.47.18-.95.35-1.42.52.07-.22.16-.43.25-.64l1.17.12z"/><path style="fill:#191515" d="M103.83 155.02c-1.53.69-3.13 1.18-4.76 1.53.45-.25.92-.48 1.41-.69 1.11-.469 2.23-.689 3.35-.84z"/><path style="fill:none;stroke:#fff;stroke-width:1.0598;stroke-linecap:round;stroke-linejoin:round;stroke-miterlimit:10" d="M188.334 105.984c7.164-2.714 15.202-3.114 22.779-5.311-.434 3.694-4.09 6.784-7.713 7.304 7.677 2.608 15.307-4.367 23.4-4.861 5.323-.325 10.384 2.195 14.938 4.969-5.497-.678-11.222.673-15.837 3.735-8.525 5.658-13.618 16.931-23.673 18.826 4.986 1.075 9.973-1.286 14.797-2.944s10.793-2.415 14.484 1.105c-3.967-1.536-8.49.804-11.261 4.032-2.771 3.228-4.404 7.271-6.885 10.727-7.029 9.793-19.889 13.6-31.93 14.157 4.587 2.828 10.483 2.414 15.673.965 5.19-1.449 10.13-3.828 15.447-4.709 5.316-.881 11.401.079 14.85 4.22-6.171-.227-12.787-.339-17.964 3.028-4.616 3.002-7.316 8.319-11.875 11.407-5.381 3.645-12.433 3.594-18.852 2.582-6.42-1.012-12.822-2.854-19.299-2.318 1.328 3.715 4.451 6.741 8.206 7.95-6.903 2.095-14.227-.811-20.851-3.666-5.163-2.225-9.09-4.087-14.253-6.312"/></g><g><path style="fill:none;stroke:#fff;stroke-width:1.0598;stroke-miterlimit:10" d="M69.711 173.497c-1.116 1.252-1.337 4.019-1.485 5.61-.182 1.952-.084 3.923.152 5.866.229 1.884 1.068 3.964 1.089 5.834a6.304 6.304 0 0 1 1.652-4.296c-.303 5.081 2.262 9.878 5.151 14.069a79.197 79.197 0 0 0 9.621 11.462 26.172 26.172 0 0 1-2.705-14.271c2.253 4.202 6.198 7.332 10.56 9.257 4.362 1.925 9.139 2.731 13.892 3.109-6.951-3.786-12.218-10.543-14.194-18.207a14.85 14.85 0 0 0 5.357 1.785 13.275 13.275 0 0 1-1.774-7.532 29.564 29.564 0 0 0 9.584 2.031 18.817 18.817 0 0 1-4.506-9.473l7.333 2.775c-2.25-3.113-3.038-4.931-3.3-8.763"/></g><path style="fill:#191515" d="M95.325 150.605c-.077.239-.188.508-.428.582-.316.099-.604-.202-.8-.469l-1.622-2.214c-.485-.662-.974-1.331-1.302-2.084-.206-.474-.345-1.011-.195-1.506.424-1.398 4.018-2.377 4.994-1.215.63.75.267 2.303.164 3.173a19.916 19.916 0 0 1-.811 3.733zM101.325 150.093c-.077.239-.188.507-.428.582-.316.099-.604-.202-.8-.469l-1.622-2.214c-.485-.662-.974-1.331-1.302-2.084-.206-.474-.345-1.011-.195-1.506.424-1.398 4.018-2.376 4.994-1.214.63.75.267 2.303.164 3.173a19.923 19.923 0 0 1-.811 3.732zM109.008 150.093c-.077.239-.188.507-.428.582-.316.099-.604-.202-.8-.469l-1.622-2.214c-.485-.662-.975-1.331-1.302-2.084-.206-.474-.345-1.011-.195-1.506.424-1.398 4.018-2.376 4.994-1.214.63.75.267 2.303.163 3.173a19.921 19.921 0 0 1-.81 3.732zM139.666 147.312c-.077.239-.188.507-.428.582-.316.099-.604-.202-.8-.469l-1.622-2.214c-.485-.662-.974-1.331-1.302-2.084-.206-.474-.345-1.011-.195-1.505.423-1.398 4.018-2.377 4.994-1.215.63.75.267 2.303.164 3.173a19.827 19.827 0 0 1-.811 3.732zM81.84 164.811c-.73-.24-1.46-.49-2.19-.76.05-.09.11-.18.17-.27.13-.19.28-.36.44-.52.47.57 1 1.089 1.58 1.55zM80.99 170.01c-.62-.05-1.2-.01-1.72.17-.26-.84-.39-1.71-.41-2.59.04.07.08.13.13.2 0 .38.97 1.2 1.22 1.46s.51.51.78.76z"/><path style="fill:#191515" d="M80.99 170.01c-.62-.05-1.2-.01-1.72.17-.26-.84-.39-1.71-.41-2.59.04.07.08.13.13.2 0 .38.97 1.2 1.22 1.46s.51.51.78.76z"/><path style="fill:#fff" d="M111.594 134.573a27.735 27.735 0 0 0 9.865-4.596c.109-.08.233-.165.366-.145.201.03.289.268.326.468.654 3.566-2.123 7.07-5.778 7.073-1.732.001-4.144-1.057-4.779-2.8z"/><path style="fill:#191515" d="M112.453 134.295a1.862 1.862 0 1 0 3.723-.003 1.862 1.862 0 0 0-3.723.003zM76.557 151.643c.337 1.58 1.099 3.126 2.389 4.099-.72 1.067-2.128 1.531-3.404 1.358-1.275-.173-2.421-.895-3.355-1.781a10.193 10.193 0 0 1-2.711-4.374c-.254-.827-.394-1.755-.017-2.534.341-.704 1.038-1.154 1.702-1.568l3.75-2.339c.704-.439 1.793-1.504 1.687-.104-.088 1.152-.284 2.269-.307 3.436-.013.638-.015 1.278.023 1.915.022.367-.032 1.637.243 1.892z"/><g><path style="fill:#fff" d="M60.344 138.105c-.037-.052.081.075.136.117.076.061.144.126.227.183.156.121.323.232.493.341.342.212.702.401 1.077.56a8.398 8.398 0 0 0 2.359.623c.814.076 1.644.099 2.463-.037.823-.1 1.627-.331 2.422-.589l-.297.466a25.223 25.223 0 0 1 .003-3.749c.056-.627.14-1.256.307-1.887.191-.611.381-1.311 1.087-1.792.356-.232.836-.259 1.191-.15.376.103.643.277.932.428a6.126 6.126 0 0 1 1.495 1.26c.849 1.009 1.346 2.236 1.476 3.558l-.432-.313 4.137-1.078-.201.169a26.18 26.18 0 0 1 1.431-2.564c.536-.82 1.092-1.641 1.891-2.303.098-.083.179-.143.252-.215.08-.059.077-.162.084-.025.059.067-.043-.029-.14-.05a4.895 4.895 0 0 0-.327-.102c-.462-.128-.948-.271-1.406-.481a4.537 4.537 0 0 1-2.193-2.046.226.226 0 0 1 .094-.306.23.23 0 0 1 .306.093 4.055 4.055 0 0 0 1.996 1.808c.424.187.871.312 1.342.436.118.032.239.065.366.109.12.063.278.049.449.338a.452.452 0 0 1-.038.403c-.051.09-.102.139-.153.197-.097.1-.21.185-.295.26-.688.585-1.234 1.392-1.736 2.194-.5.809-.952 1.662-1.357 2.519a.32.32 0 0 1-.202.169l-4.12 1.139a.34.34 0 0 1-.419-.238l-.01-.05-.003-.025c-.126-1.111-.599-2.261-1.353-3.111a5.4 5.4 0 0 0-1.32-1.079c-.521-.296-1.004-.497-1.317-.264-.344.215-.571.783-.71 1.324-.139.558-.211 1.15-.255 1.744a24.32 24.32 0 0 0 .051 3.601l.001.01a.444.444 0 0 1-.298.456c-.843.289-1.703.548-2.597.672-.887.159-1.802.152-2.705.079a9.387 9.387 0 0 1-2.646-.657 8.77 8.77 0 0 1-1.229-.617 7.773 7.773 0 0 1-.578-.388c-.096-.065-.187-.147-.28-.22-.107-.1-.155-.113-.332-.33a.53.53 0 0 1 .881-.59z"/></g><g><path style="fill:#fff" d="M136.137 142.079c2.598-1.923 6.848-2.969 8.627.562 4.665 8.177.684 15.047-8.762 14.873-6.076-.243-12.012-1.873-18.105-1.259-3.98.314-8.065.844-11.604 2.677-1.768.915-3.392 2.112-5.043 3.283-4.915 3.628-10.744 6.059-16.809 6.859-3.879.824-8.297-.578-11.849 1.356a.227.227 0 0 1-.313-.069.227.227 0 0 1 .071-.313c3.714-2.063 8.042-.64 12.018-1.497 5.985-.83 11.674-3.245 16.509-6.857 1.639-1.176 3.276-2.403 5.101-3.363 3.659-1.918 7.81-2.489 11.867-2.828 6.103-.656 12.121.927 18.158 1.145 8.706.105 12.23-5.952 7.91-13.483-1.479-2.984-5.038-1.79-7.155-.229-.568.411-1.179-.452-.621-.857z"/></g><g><path style="fill:#fff" d="M158.895 141.266c1.073 4.348.362 9.065-1.912 12.875-2.276 3.809-6.07 6.636-10.327 7.732a.226.226 0 0 1-.118-.437c4.112-1.16 7.708-3.993 9.791-7.675 2.085-3.682 2.641-8.186 1.54-12.229a.53.53 0 1 1 1.023-.279l.003.013z"/></g><g><path style="fill:#fff" d="M140.678 169.993c-.874.873-2.062 1.26-3.16 1.401-1.116.149-2.195.114-3.266.069-2.149-.089-4.264-.371-6.368-.636-2.103-.27-4.197-.54-6.293-.631-2.092-.098-4.195-.018-6.218.455-4.08 1.047-8.187 2.186-12.28 3.275l-12.287 3.302a.227.227 0 0 1-.12-.437l12.247-3.448c4.091-1.141 8.145-2.319 12.267-3.428 2.108-.519 4.284-.625 6.423-.55 2.144.068 4.265.317 6.37.561 2.106.24 4.203.493 6.295.554 1.045.033 2.097.049 3.084-.097.988-.139 1.915-.484 2.55-1.134a.53.53 0 1 1 .759.739l-.003.005z"/></g><g><path style="fill:#fff" d="M101.156 147.091c-2.136-.646-3.967-1.811-5.806-2.833-1.828-1.023-3.742-1.968-5.823-2.083a.228.228 0 0 1-.214-.239.228.228 0 0 1 .228-.214c2.207.016 4.267.922 6.162 1.867 1.906.949 3.758 1.99 5.733 2.48a.53.53 0 1 1-.28 1.022z"/></g><g><path style="fill:#fff" d="M96.013 131.675c-.344-1.401-1.194-2.709-2.397-3.559-1.197-.847-2.761-1.232-4.243-.962a.226.226 0 0 1-.096-.442c1.59-.396 3.334-.099 4.754.772 1.423.875 2.491 2.29 3.001 3.901a.53.53 0 0 1-1.009.326c-.003-.01-.008-.025-.01-.036z"/></g><g><path style="fill:#fff" d="M89.325 132.927c-1.111-2.611-3.706-4.629-6.628-5.036a.227.227 0 0 1 .047-.45c3.108.227 6.07 2.16 7.539 5.036a.53.53 0 0 1-.942.486l-.016-.036z"/></g><path style="fill:#191515" d="M81.642 152.873c-.077.239-.188.507-.428.582-.316.099-.604-.202-.8-.469l-1.623-2.214c-.485-.662-.974-1.331-1.301-2.084-.206-.474-.345-1.011-.195-1.506.424-1.398 4.018-2.376 4.994-1.214.63.75.267 2.303.164 3.173a19.906 19.906 0 0 1-.811 3.732zM87.935 151.556c-.077.239-.188.508-.428.582-.316.098-.604-.202-.8-.469l-1.622-2.214c-.485-.662-.974-1.331-1.302-2.084-.206-.474-.345-1.011-.195-1.506.424-1.398 4.018-2.377 4.994-1.215.63.75.267 2.303.164 3.174a19.985 19.985 0 0 1-.811 3.732zM95.31 157.161c-1.04.12-2.09.2-3.14.25-.02-.44-.02-.88-.01-1.31.01-.25.04-.54.24-.68.28-.19.64.02.91.22.66.5 1.33 1.009 2 1.52zM101.52 154.691c-1.6-.24-3.14-.78-4.54-1.59 0-.19.01-.39.01-.59.01-.22.03-.47.19-.62 0-.02.02-.04.05-.06.21-.14.47-.06.69.08.07.04.14.09.21.14.73.56 1.46 1.11 2.19 1.66.41.309.82.62 1.2.98zM102.37 155.6c-1.07.4-2.18.71-3.3.95.45-.25.92-.48 1.41-.69.55-.23 1.11-.41 1.67-.53l.01.01c.07.081.14.17.21.26zM104.34 154.801c-.17.08-.34.16-.51.22-.18.08-.36.16-.55.23-.01-.05-.01-.1-.01-.15-.01-.09-.02-.18-.01-.27.36.009.72 0 1.08-.03zM107.03 151.4v.01c-1.14.16-2.29.28-3.44.36.13-.81.31-1.61.55-2.4.07-.24.17-.51.41-.59.31-.11.61.19.81.45.56.73 1.11 1.441 1.67 2.17zM113.35 150.171c-1.03.27-2.08.5-3.13.7.25-.84.57-1.66.93-2.46.11-.22.25-.48.5-.52.32-.06.57.27.74.56.32.58.64 1.149.96 1.72zM119.26 148.301c-.47.18-.95.35-1.42.52.07-.22.16-.43.25-.64l1.17.12z"/><path style="fill:#191515" d="M97.92 151.911c-.25-.01-.49-.02-.74-.02 0-.02.02-.04.05-.06.21-.14.47-.061.69.08zM103.27 155.1c-.37.06-.75.13-1.12.23-.19-.23-.4-.45-.63-.64.58.08 1.16.13 1.74.14-.01.091 0 .18.01.27z"/><g><path style="fill:#191515" d="M103.83 155.02c-1.53.69-3.13 1.18-4.76 1.53.45-.25.92-.48 1.41-.69 1.11-.469 2.23-.689 3.35-.84z"/><path style="fill:#fff" d="M61.264 143.216a92.489 92.489 0 0 1-10.265 5.403l-.05-.263a16.973 16.973 0 0 0 5.246-.716l.348-.105-.1.355c-.76 2.695-.725 5.543-.334 8.306.397 2.774 1.155 5.49 1.934 8.201l-.671.085c.072-4.761 1.818-9.485 4.896-13.15l.557-.664.199.849c.429 1.835 1.738 3.362 3.232 4.6 1.511 1.239 3.205 2.322 4.897 3.349a52.098 52.098 0 0 0 10.84 4.876l-.46.861c-2.82-2.241-4.502-5.791-4.476-9.394l.006-.798.73.332c2.006.912 4.215 1.335 6.444 1.52 2.232.185 4.509.144 6.773.087 4.508-.14 9.068-.694 13.129-2.587l.242.914c-3.457.261-6.972-.907-9.591-3.165l-1.063-.916 1.398.111c8.108.644 16.374-.45 24.023-3.301l.084.612A41.411 41.411 0 0 1 106 145.096l-.393-.179.39-.175a7.418 7.418 0 0 0 2.817-2.221l.149.237c-4.199.776-8.697-.982-11.265-4.311 2.647 3.268 7.146 4.872 11.207 4.017l.383-.081-.234.318a7.764 7.764 0 0 1-2.893 2.393l-.004-.354a42.943 42.943 0 0 0 13.132 3.246l1.375.114-1.291.498c-7.696 2.967-16.066 4.26-24.319 3.624l.335-.805c2.437 2.085 5.728 3.16 8.918 2.902l2.635-.213-2.393 1.127c-4.242 1.998-8.94 2.575-13.504 2.738-2.29.067-4.579.121-6.894-.059-2.306-.171-4.639-.643-6.792-1.626l.735-.466c-.044 3.271 1.495 6.56 4.056 8.606l2.122 1.695-2.582-.834a53.099 53.099 0 0 1-11.019-5.015c-1.726-1.059-3.417-2.146-5.002-3.455-1.551-1.301-3.029-2.976-3.494-5.106l.756.186c-2.992 3.466-4.746 8.001-4.875 12.6l-.065 2.306-.606-2.221c-.744-2.725-1.474-5.479-1.841-8.308-.374-2.817-.331-5.75.514-8.496l.248.249a17.317 17.317 0 0 1-5.366.604l-.611-.027.56-.236a92.865 92.865 0 0 0 10.375-5.152z"/></g><g><path style="fill:#fff" d="M135.021 110.559a18.173 18.173 0 0 0-11.222 1.592c-.864.407-1.64.984-2.587 1.338-.962.348-1.976.293-2.921.332-1.899.072-3.816.405-5.48 1.267-1.707.831-2.813 2.396-3.914 3.983-.143.194-.274.399-.474.609a1.555 1.555 0 0 1-.778.442c-.562.11-.987.108-1.465.191a13.84 13.84 0 0 0-2.732.679c-1.761.632-3.345 1.726-4.468 3.195-.269.369-.555.757-.731 1.141a1.917 1.917 0 0 0-.171 1.176c.158.868.408 1.843.769 2.649a8.762 8.762 0 0 0 3.697 3.949c1.601.923 3.458 1.385 5.31 1.462 1.858.08 3.714-.319 5.487-.951 1.774-.637 3.462-1.523 5.096-2.507 1.647-.969 3.18-2.115 4.919-3.087.867-.48 1.797-.892 2.791-1.148 1.016-.249 1.998-.299 2.985-.335 1.974-.042 3.921.154 5.843.38l5.746.697-.539.346c.872-2.736 1.384-5.691.703-8.433l.92.042a6.436 6.436 0 0 1-3.917 3.851.468.468 0 0 1-.596-.289l-.008-.027a20.024 20.024 0 0 1-.269-9.749l.478.54c-3.295.278-6.408 1.713-9.157 3.598-2.768 1.891-5.241 4.205-7.677 6.546a.3.3 0 0 1-.422-.001.306.306 0 0 1-.081-.156c-.359-1.923.273-3.98 1.649-5.353l.234.43c-3.248.622-6.354 1.89-9.291 3.441-2.944 1.553-5.737 3.384-8.519 5.22 2.734-1.906 5.479-3.808 8.396-5.444 2.91-1.633 6.014-2.998 9.311-3.717a.254.254 0 0 1 .303.195.254.254 0 0 1-.064.23l-.005.005c-1.223 1.272-1.778 3.163-1.426 4.879l-.504-.157c2.408-2.38 4.867-4.754 7.672-6.73 2.783-1.967 6.005-3.526 9.497-3.873a.444.444 0 0 1 .477.54 19.139 19.139 0 0 0 .302 9.3l-.604-.316a5.49 5.49 0 0 0 3.315-3.289.481.481 0 0 1 .921.042c.39 1.503.428 3.058.275 4.565-.155 1.511-.501 2.985-.953 4.416a.506.506 0 0 1-.539.347l-5.747-.669c-1.908-.218-3.812-.392-5.699-.349-.937.028-1.896.08-2.757.29-.877.221-1.729.589-2.55 1.039-1.638.902-3.214 2.061-4.897 3.043-3.316 1.972-7.074 3.697-11.136 3.546-1.993-.093-3.987-.596-5.731-1.611a9.67 9.67 0 0 1-4.055-4.385c-.404-.966-.625-1.879-.798-2.907a2.796 2.796 0 0 1 .266-1.639c.239-.49.54-.877.842-1.281 1.247-1.586 2.988-2.741 4.863-3.383a14.536 14.536 0 0 1 2.884-.674c.474-.073 1.02-.085 1.405-.158.372-.058.581-.368.884-.781.568-.772 1.127-1.576 1.802-2.306a8.206 8.206 0 0 1 2.377-1.799c1.788-.901 3.786-1.183 5.727-1.207.972-.012 1.932.058 2.811-.239.876-.298 1.689-.861 2.58-1.256a18.309 18.309 0 0 1 11.347-1.327z"/></g><g><path style="fill:#191515" d="M142.709 153.03c2.876.623 5.891.56 8.748-.139 2.119-.518 6.096-1.445 6.044-4.247a2.853 2.853 0 0 0-1.233-2.269c-2.401.78-5.066.724-7.432-.157a11.351 11.351 0 0 1-3.536-2.127c-.856-.756-1.419-2.104-2.289-2.743-1.808-1.33-6.284.444-8.09 1.246-1.053.468-4.032 1.309-3.874 2.63.142 1.192 2.275 2.813 3.127 3.542 2.44 2.088 5.393 3.583 8.535 4.264z"/><path style="fill:none;stroke:#fff;stroke-linecap:round;stroke-linejoin:round;stroke-miterlimit:10" d="M142.709 153.03c2.876.623 5.891.56 8.748-.139 2.119-.518 6.096-1.445 6.044-4.247a2.853 2.853 0 0 0-1.233-2.269c-2.401.78-5.066.724-7.432-.157a11.351 11.351 0 0 1-3.536-2.127c-.856-.756-1.419-2.104-2.289-2.743-1.808-1.33-6.284.444-8.09 1.246-1.053.468-4.032 1.309-3.874 2.63.142 1.192 2.275 2.813 3.127 3.542 2.44 2.088 5.393 3.583 8.535 4.264z"/></g><g><path style="fill:#fff" d="M126.638 127.779c-.082 3.101.062 6.523-1.524 9.368-3.042 4.964-9.954 4.605-14.472 2.069-.256-.13-.063-.533.201-.405 4.301 2.258 10.784 2.591 13.539-2.084 1.413-2.733 1.179-5.911 1.196-8.954-.004-.697 1.071-.7 1.06.006z"/></g><g><path style="fill:#fff" d="M203.759 120.532c-5.077-2.127-9.161-5.868-13.758-8.631-2.301-1.386-4.748-2.502-7.363-3.088-2.6-.595-5.307-.944-7.967-1.162-2.665-.172-5.366-.045-7.904.709-2.549.723-4.815 2.166-6.835 3.906-2.043 1.734-3.757 3.761-5.533 5.843-1.801 2.102-4.207 3.763-6.877 4.62a.531.531 0 0 1-.33-1.008l.007-.002c2.497-.783 4.728-2.279 6.469-4.269 1.751-2.015 3.566-4.124 5.677-5.877 2.084-1.767 4.503-3.279 7.191-4.013 2.672-.766 5.468-.866 8.189-.664 2.727.25 5.404.62 8.074 1.256 2.674.624 5.201 1.805 7.517 3.232 4.637 2.853 8.659 6.602 13.62 8.731a.227.227 0 0 1-.177.417z"/><path style="fill:none;stroke:#fff;stroke-width:.5446;stroke-miterlimit:10" d="M143.471 116.091c-.421-.5 1.127-3.379 1.348-3.799 1.559-2.972 4.069-5.328 7.025-6.886 3.851-2.031 8.933-2.837 13.237-3.366a43.871 43.871 0 0 1 15.063.751c2.329.531 4.631 1.26 6.718 2.421 3.359 1.868 6.009 4.756 8.728 7.473 2.75 2.749 5.63 5.368 8.627 7.846-1.804.674-3.797.058-5.715-.109a12.157 12.157 0 0 0-7.039 1.546c-1.609.92-2.981 2.195-4.383 3.407-2.526 2.184-5.227 4.198-8.173 5.782-3.099 1.665-6.402 1.979-9.55 3.266-6.419 2.625-12.776 3.81-19.745 2.607"/></g><g><path style="fill:#191515" d="M84.019 149.934c-4.369.374-8.549 2.729-11.85 5.991-3.336 3.271-5.742 7.458-7.635 11.912-1.897 4.464-3.308 9.177-4.931 13.879-.824 2.346-1.899 4.813-3.779 6.679-1.839 1.853-4.227 3.119-6.766 3.569a.501.501 0 0 1-.197-.983 11.554 11.554 0 0 0 5.962-3.531c1.57-1.724 2.428-3.958 3.115-6.277 1.363-4.702 2.542-9.532 4.271-14.256 1.722-4.699 4.069-9.386 7.617-13.244 1.775-1.906 3.783-3.653 6.104-4.996a20.836 20.836 0 0 1 7.633-2.717 2.001 2.001 0 1 1 .456 3.974z"/></g><g><path style="fill:#191515" d="M79.19 145.873c-4.369.374-8.549 2.729-11.85 5.991-3.336 3.271-5.742 7.459-7.635 11.912-1.897 4.464-3.308 9.177-4.931 13.879-.824 2.346-1.899 4.813-3.779 6.679-1.839 1.853-4.227 3.119-6.766 3.569a.501.501 0 0 1-.197-.982 11.554 11.554 0 0 0 5.962-3.531c1.57-1.724 2.428-3.958 3.115-6.277 1.364-4.702 2.542-9.532 4.271-14.256 1.723-4.699 4.069-9.386 7.617-13.244 1.775-1.906 3.784-3.653 6.104-4.996a20.836 20.836 0 0 1 7.633-2.717 2.001 2.001 0 1 1 .456 3.973z"/></g></g></svg>